<svg width="35" height="38" viewBox="0 0 35 38" fill="none" xmlns="http://www.w3.org/2000/svg">
<path d="M16.4082 0.0658875C15.8585 0.236591 15.4647 0.578007 15.227 1.1124C15.0933 1.40186 15.071 1.60225 15.071 2.53743V3.62847L11.0667 3.65074C7.24806 3.673 7.0549 3.68043 6.90632 3.81402C6.75031 3.95504 6.75031 3.97731 6.75031 8.2153C6.75031 12.3717 6.75031 12.4681 6.89889 12.6166C7.04748 12.765 7.14405 12.765 11.0592 12.765H15.071V14.5463V16.3276H11.0815C8.08756 16.335 7.04748 16.3573 6.92861 16.4241C6.76517 16.5132 2.76828 20.1277 2.45625 20.4617C2.08479 20.8625 2.12194 20.907 4.28383 22.8813C5.37591 23.8758 6.43085 24.8259 6.62401 24.9966L6.98061 25.3083H11.0295H15.071V31.1717V37.0351H7.82754C0.680681 37.0351 0.584101 37.0351 0.435518 37.1836C0.24236 37.3765 0.24236 37.6586 0.435518 37.8516C0.584101 38 0.680681 38 17.2254 38C33.7702 38 33.8668 38 34.0153 37.8516C34.2085 37.6586 34.2085 37.3765 34.0153 37.1836C33.8668 37.0351 33.7702 37.0351 26.4004 37.0351H18.9341V31.1717V25.3083H23.2282C27.2994 25.3083 27.5371 25.3009 27.6486 25.1747C27.76 25.0485 27.7748 24.6403 27.7748 20.8476C27.7748 17.3444 27.76 16.6319 27.6708 16.5057C27.5668 16.3721 27.4257 16.3647 23.2505 16.3424L18.9341 16.3276L18.949 14.5612L18.9713 12.8021L23.2876 12.765L27.6114 12.7279L28.0423 12.3197C28.2875 12.0896 29.3053 11.147 30.3156 10.2193C31.326 9.2915 32.1729 8.46023 32.1952 8.38601C32.2249 8.30437 32.2249 8.17819 32.2026 8.10397C32.1729 8.02975 31.118 7.0055 29.8476 5.84024L27.5371 3.71011H23.2356H18.9341V2.61165C18.9341 2.01046 18.897 1.39443 18.8524 1.23857C18.7484 0.852623 18.3101 0.385033 17.8569 0.177216C17.4706 -0.00833511 16.8094 -0.0528679 16.4082 0.0658875ZM17.6117 1.0456C17.686 1.09013 17.8198 1.23115 17.8941 1.35732C18.0204 1.56514 18.0426 1.73585 18.0426 2.61165V3.63589H17.0768H16.1111V2.53001V1.42412L16.3339 1.19404C16.4602 1.07529 16.6311 0.956532 16.7277 0.941689C16.9506 0.889732 17.4334 0.949112 17.6117 1.0456ZM29.0527 6.36721C30.1002 7.33208 30.9545 8.15592 30.9545 8.20045C30.9471 8.23757 30.0927 9.06884 29.0452 10.0337L27.1434 11.7927L17.4334 11.8002H7.7161V8.20045V4.60076H17.4334H27.1434L29.0527 6.36721ZM17.9683 14.5463V16.3276H17.0026H16.0368V14.5983C16.0368 13.6408 16.0591 12.8392 16.0888 12.817C16.1111 12.7873 16.5494 12.765 17.0546 12.765H17.9683V14.5463ZM26.7942 20.8328L26.8091 24.3434H17.062L7.3075 24.336L5.39077 22.5844L3.46662 20.8328L3.64492 20.6695C3.7415 20.5804 4.61071 19.7789 5.58393 18.8956L7.34464 17.2925L17.062 17.3073L26.7719 17.3296L26.7942 20.8328ZM17.9683 31.1717V37.0351H17.0026H16.0368V31.1717V25.3083H17.0026H17.9683V31.1717Z" fill="black"/>
<path d="M29.0527 6.36721C30.1002 7.33208 30.9545 8.15592 30.9545 8.20045C30.9471 8.23757 30.0927 9.06884 29.0452 10.0337L27.1434 11.7927L17.4334 11.8002H7.7161V8.20045V4.60076H17.4334H27.1434L29.0527 6.36721Z" fill="#A94C2E"/>
<path d="M26.7942 20.8328L26.8091 24.3434H17.062L7.3075 24.336L5.39077 22.5844L3.46662 20.8328L3.64492 20.6695C3.7415 20.5804 4.61071 19.7789 5.58393 18.8956L7.34464 17.2925L17.062 17.3073L26.7719 17.3296L26.7942 20.8328Z" fill="#243E2E"/>
</svg>
