<svg width="30" height="30" viewBox="0 0 30 30" fill="none" xmlns="http://www.w3.org/2000/svg">
<g clip-path="url(#clip0_755_445)">
<path d="M13.8867 0.0407939C11.666 0.251731 10.0137 0.720481 8.14453 1.6697C5.92969 2.80056 3.94336 4.58181 2.49023 6.73806C1.88086 7.65212 1.13086 9.19314 0.767578 10.283C0.480469 11.1619 0.246094 12.1638 0.105469 13.1541C0.00585938 13.8455 0.00585938 16.1541 0.105469 16.8455C0.351562 18.574 0.808594 20.0857 1.52344 21.533C2.32617 23.1736 3.11719 24.2752 4.41797 25.5818C5.71289 26.8709 6.83203 27.6736 8.4082 28.447C9.50976 28.9861 10.2187 29.2498 11.3379 29.531C14.2676 30.2693 17.209 30.1287 20.0684 29.115C20.9414 28.8045 22.4531 28.0486 23.2324 27.5271C25.3711 26.1033 27.1406 24.1404 28.3066 21.8845C29.3672 19.8455 29.8945 17.8181 29.9824 15.4978C30.0703 13.0017 29.5547 10.6228 28.4414 8.38454C27.7148 6.9197 26.9004 5.7654 25.7578 4.58767C24.4922 3.27517 23.25 2.37283 21.5918 1.55251C19.8574 0.697044 18.2402 0.234153 16.3184 0.058372C15.7207 0.00563765 14.3672 -0.0060811 13.8867 0.0407939ZM23.666 8.40798C24.0176 8.60134 24.3105 8.91775 24.5039 9.31032L24.6387 9.57986V14.9998V20.4197L24.5039 20.6892C24.3105 21.0818 24.0176 21.3982 23.666 21.5916L23.3496 21.7674H15H6.65039L6.33398 21.5916C5.98242 21.3982 5.68945 21.0818 5.49609 20.6892L5.36133 20.4197V14.9998V9.57986L5.52539 9.24587C5.72461 8.84157 6.11133 8.48415 6.52734 8.32595C6.82031 8.20876 6.97266 8.20876 15.0879 8.22048L23.3496 8.2322L23.666 8.40798Z" fill="#243E2E"/>
<path d="M8.49607 9.80851C8.68357 9.98429 14.8886 14.8886 14.9648 14.9179C15.0234 14.9413 21.1054 10.1894 21.5039 9.80851C21.5742 9.73819 20.6543 9.72648 15 9.72648C9.36912 9.72648 8.42576 9.73819 8.49607 9.80851Z" fill="#243E2E"/>
<path d="M6.91406 15.3105C6.91406 19.8574 6.91992 20.0859 7.01953 20.1738C7.11914 20.2676 7.75781 20.2734 15.0117 20.2734C22.582 20.2734 22.8984 20.2676 22.9922 20.168C23.0801 20.0684 23.0859 19.6641 23.0742 15.3105L23.0566 10.5586L21.8262 11.543C16.9219 15.4453 15.3164 16.6992 15.1699 16.7285C15.0762 16.752 14.9238 16.752 14.8359 16.7285C14.748 16.7109 13.7227 15.9434 12.5625 15.0234C10.8926 13.6934 7.83398 11.2734 7.04883 10.6465L6.91406 10.541V15.3105Z" fill="#243E2E"/>
</g>
<defs>
<clipPath id="clip0_755_445">
<rect width="30" height="30" fill="white"/>
</clipPath>
</defs>
</svg>
