<svg width="30" height="30" viewBox="0 0 30 30" fill="none" xmlns="http://www.w3.org/2000/svg">
<g clip-path="url(#clip0_755_427)">
<path d="M13.6583 0.123047C11.8067 0.287109 9.88482 0.84375 8.2149 1.69336C6.69732 2.47266 5.70123 3.20508 4.42389 4.48242C3.07623 5.82422 2.36139 6.82031 1.55279 8.4668C1.03717 9.52148 0.755916 10.2539 0.492245 11.2852C-0.574162 15.3984 0.15826 19.8281 2.47857 23.291C3.64459 25.0312 5.19146 26.5605 6.91412 27.6621C8.51373 28.6934 10.5001 29.4844 12.2637 29.7891L12.4805 29.8301V23.9941V18.1641H10.6934H8.90631V16.084V14.0039H10.6934H12.4805V12.4336C12.4805 11.5723 12.5098 10.5762 12.5391 10.2246C12.7794 7.69922 14.1094 6.08203 16.4063 5.52539C16.7696 5.4375 17.0977 5.41992 18.2813 5.41992C19.0723 5.41992 20.0274 5.44336 20.4083 5.4668L21.0938 5.51953V7.38867V9.25781H20.086C18.0176 9.26367 17.3907 9.43945 17.0567 10.1074C16.8575 10.5117 16.8165 10.8984 16.8165 12.4863V14.0039H18.9024H20.9883L20.9532 14.1914C20.918 14.4199 20.4493 18.0234 20.4493 18.1055C20.4493 18.1406 19.7754 18.1699 18.6504 18.1758L16.8458 18.1934L16.8282 24.0703L16.8165 29.9414L17.0626 29.9062C19.7579 29.5195 22.3301 28.3945 24.4629 26.6777C25.1954 26.0859 26.3848 24.8672 26.9297 24.1348C30.3692 19.5703 30.961 13.582 28.4766 8.52539C27.6446 6.82031 26.9356 5.8418 25.5762 4.48242C24.2989 3.20508 23.3028 2.47266 21.7852 1.69336C19.3008 0.427734 16.4473 -0.123047 13.6583 0.123047Z" fill="#243E2E"/>
</g>
<defs>
<clipPath id="clip0_755_427">
<rect width="30" height="30" fill="white"/>
</clipPath>
</defs>
</svg>
