<svg width="30" height="30" viewBox="0 0 30 30" fill="none" xmlns="http://www.w3.org/2000/svg">
<g clip-path="url(#clip0_755_422)">
<path d="M13.5644 0.0646801C8.87693 0.551008 4.76951 3.09984 2.27342 7.07249C-1.26565 12.6975 -0.603537 20.133 3.86717 25.0315C6.34568 27.7444 9.43943 29.3674 13.1543 29.8948C13.8457 29.9944 16.1484 29.9885 16.875 29.8948C20.2676 29.426 23.3027 27.9201 25.6113 25.5647C26.373 24.7912 26.5312 24.6096 27.0351 23.9416C28.5351 21.9436 29.5136 19.5061 29.8945 16.8459C29.9941 16.1545 29.9941 13.8459 29.8945 13.1545C29.6426 11.3791 29.1797 9.86741 28.4472 8.38499C27.6621 6.81468 26.8652 5.69554 25.6172 4.43577C23.3027 2.09202 20.4082 0.633039 17.0801 0.140852C16.3594 0.0353832 14.2793 -0.0114918 13.5644 0.0646801ZM18.5332 6.44554C20.2207 6.55687 21.2051 6.92601 22.1074 7.78148C23.0215 8.65452 23.4433 9.72679 23.5547 11.467C23.6308 12.6096 23.6308 17.3616 23.5547 18.5217C23.4433 20.2795 23.0097 21.3635 22.0722 22.2483C21.1992 23.0744 20.1914 23.4494 18.5332 23.5549C17.4082 23.6252 12.5918 23.6252 11.4668 23.5549C9.77927 23.4436 8.7949 23.0744 7.89256 22.219C6.97849 21.3459 6.55662 20.2737 6.44529 18.5334C6.36912 17.3967 6.37498 12.51 6.44529 11.4319C6.56248 9.71507 6.98435 8.64866 7.89256 7.78148C8.75974 6.96116 9.79685 6.55101 11.3027 6.4514C12.2929 6.38109 17.5195 6.38109 18.5332 6.44554Z" fill="#243E2E"/>
<path d="M12.8613 7.97461C11.1035 8.00976 10.8164 8.02734 10.4238 8.13281C9.17578 8.47266 8.4668 9.17578 8.13281 10.4238C8.02734 10.8164 8.00977 11.1094 7.97461 12.9375C7.95703 14.0684 7.95703 15.9316 7.97461 17.0684C8.00977 18.8906 8.02734 19.1836 8.13281 19.5762C8.4668 20.8242 9.17578 21.5332 10.4238 21.8672C10.8164 21.9727 11.1094 21.9902 12.9375 22.0254C14.0684 22.043 15.9316 22.043 17.0684 22.0254C18.9023 21.9902 19.1836 21.9727 19.5879 21.8613C20.8008 21.5391 21.5391 20.8066 21.8672 19.5879C21.9727 19.1777 21.9902 18.9082 22.0254 17.0625C22.043 15.9316 22.043 14.0684 22.0254 12.9316C21.9902 11.1035 21.9727 10.8164 21.8672 10.4238C21.5332 9.17578 20.8184 8.46094 19.5762 8.13281C19.1191 8.01562 19.002 8.00976 15.7031 7.95117C15.2344 7.94531 13.957 7.95703 12.8613 7.97461ZM19.9629 9.43945C20.1855 9.52148 20.4492 9.77344 20.543 10.002C20.8301 10.6641 20.3203 11.4258 19.5996 11.4258C19.0488 11.4258 18.5742 10.957 18.5742 10.4062C18.5742 9.69726 19.3008 9.1875 19.9629 9.43945ZM16.4238 10.8223C17.1328 11.0684 17.5254 11.3203 18.082 11.8652C18.6211 12.3984 18.9551 12.9258 19.2012 13.623C19.3535 14.0566 19.3652 14.1562 19.3652 15C19.3652 15.8437 19.3535 15.9434 19.2012 16.377C18.9668 17.0508 18.6152 17.6016 18.1113 18.1113C17.6016 18.6152 17.0508 18.9668 16.377 19.2012C15.9434 19.3535 15.8438 19.3652 15 19.3652C14.1562 19.3652 14.0566 19.3535 13.623 19.2012C12.9258 18.9551 12.3984 18.6211 11.8652 18.082C11.3203 17.5254 11.0742 17.1328 10.8164 16.4238C10.6406 15.9258 10.6348 15.873 10.6348 15C10.6406 14.1738 10.6523 14.0508 10.7988 13.623C11.1035 12.7148 11.7539 11.8594 12.5391 11.3379C13.3945 10.7695 14.0098 10.5996 15.1172 10.623C15.8203 10.6406 15.9609 10.6641 16.4238 10.8223Z" fill="#243E2E"/>
<path d="M14.3085 12.223C12.7675 12.6331 11.83 14.18 12.2167 15.6683C12.498 16.7405 13.2597 17.5023 14.3378 17.7835C16.3534 18.3108 18.3105 16.3538 17.7831 14.3382C17.373 12.7737 15.8085 11.8187 14.3085 12.223Z" fill="#243E2E"/>
</g>
<defs>
<clipPath id="clip0_755_422">
<rect width="30" height="30" fill="white"/>
</clipPath>
</defs>
</svg>
