<svg width="34" height="31" viewBox="0 0 34 31" fill="none" xmlns="http://www.w3.org/2000/svg">
<g clip-path="url(#clip0_772_561)">
<path d="M2.1582 0.0847664C1.17539 0.30879 0.358591 1.04746 0.0929656 1.96172C0.0199187 2.21602 -3.20308e-06 4.28672 -3.20308e-06 14.1982C-3.20308e-06 27.2582 -0.0199251 26.4953 0.378512 27.125C0.624216 27.5004 1.11562 27.9363 1.50078 28.1119C1.68007 28.1906 3.825 28.8688 6.27539 29.6135L10.7246 30.9697H11.3223C12.0527 30.9697 12.4644 30.8486 13.0156 30.4793C13.4605 30.1826 13.8191 29.7346 14.0117 29.226C14.118 28.9475 14.1445 28.7295 14.1445 28.0029V27.125H16.4887C19.1582 27.125 19.4238 27.0947 20.3203 26.6951C21.3961 26.2168 22.266 25.2178 22.5383 24.1582C22.691 23.5709 22.691 17.9037 22.5449 17.5707C22.1 16.602 20.5594 16.5414 20.0016 17.4678C19.902 17.6252 19.882 18.0066 19.8555 20.6162L19.8223 23.583L19.6562 23.8555C19.5633 24.0008 19.3574 24.2066 19.2047 24.3096L18.9125 24.4912L16.5285 24.5094L14.1445 24.5275L14.1312 14.5191L14.1113 4.51074L13.8988 4.10508C13.5535 3.43906 13.0887 3.04551 12.2918 2.74277L11.9199 2.60352L15.4195 2.62168L18.9125 2.63379L19.2047 2.81543C19.3574 2.91836 19.5633 3.12422 19.6562 3.26953L19.8223 3.54199L19.8555 5.88516L19.8887 8.22227L20.0879 8.48262C20.3867 8.87012 20.7785 9.03359 21.323 9.00938C21.8277 8.98516 22.1664 8.81563 22.4453 8.43418L22.6113 8.21016L22.6312 5.80645C22.6512 3.09395 22.6312 2.93047 22.193 2.11914C21.8344 1.45312 21.0773 0.768946 20.3203 0.429884C19.3109 -0.0181637 19.7824 0 10.6582 0.00605583C4.39609 0.0121098 2.41054 0.0302734 2.1582 0.0847664Z" fill="#262626"/>
<path d="M26.3301 6.59356C25.9914 6.73281 25.6594 7.07188 25.573 7.36856C25.5266 7.50781 25.5 8.3918 25.5 9.60879V11.625H22.525H19.55L19.198 11.7824C18.6004 12.0549 18.3082 12.6301 18.4676 13.2234C18.5738 13.6291 19.032 14.059 19.4703 14.1559C19.6828 14.2043 20.6723 14.2285 22.6379 14.2285H25.5V16.2326C25.5 17.6494 25.5266 18.3154 25.5797 18.491C25.7457 18.9814 26.3633 19.375 26.9676 19.375C27.4988 19.3689 27.6781 19.2297 30.7328 16.4506C33.7941 13.6654 34 13.4414 34 12.9691C34 12.3939 34.0398 12.4363 30.8191 9.4877C28.8203 7.66523 27.698 6.67832 27.5187 6.59961C27.1801 6.44824 26.682 6.44824 26.3301 6.59356Z" fill="#A7D4BC"/>
</g>
<defs>
<clipPath id="clip0_772_561">
<rect width="34" height="31" fill="white"/>
</clipPath>
</defs>
</svg>
