<svg width="22" height="19" viewBox="0 0 22 19" fill="none" xmlns="http://www.w3.org/2000/svg">
<mask id="mask0_2676_287" style="mask-type:alpha" maskUnits="userSpaceOnUse" x="0" y="0" width="22" height="19">
<rect width="22" height="18.9635" fill="#D9D9D9"/>
</mask>
<g mask="url(#mask0_2676_287)">
<path d="M10.0833 15.2103L9.60972 14.8416C8.10741 13.6608 6.87118 12.6511 5.90105 11.8127C4.93091 10.9743 4.16447 10.2401 3.60175 9.61017C3.03901 8.98025 2.64942 8.41947 2.433 7.92781C2.21656 7.43617 2.10834 6.93574 2.10834 6.42653C2.10834 5.50909 2.47373 4.72882 3.20451 4.08572C3.93531 3.44264 4.83797 3.12109 5.9125 3.12109C6.73242 3.12109 7.49631 3.31534 8.20417 3.70383C8.91204 4.09232 9.53843 4.66627 10.0833 5.42569C10.6486 4.65749 11.2801 4.08134 11.9778 3.69725C12.6755 3.31315 13.4343 3.12109 14.2542 3.12109C15.2778 3.12109 16.1524 3.42288 16.8781 4.02646C17.6038 4.63006 17.9972 5.37521 18.0583 6.26193C17.8088 6.19608 17.5644 6.1467 17.325 6.11377C17.0856 6.08085 16.8412 6.06439 16.5917 6.06439C15.1861 6.07756 14.0059 6.46495 13.051 7.22656C12.0962 7.98818 11.6188 8.99013 11.6188 10.2324C11.6188 10.7285 11.7142 11.2146 11.9052 11.6909C12.0962 12.1672 12.3979 12.616 12.8104 13.0374C12.4539 13.3184 12.0898 13.6092 11.7181 13.9099C11.3463 14.2106 10.944 14.5299 10.5111 14.8679L10.0833 15.2103ZM16.4542 11.9971L14.766 10.5485L15.1479 10.2061L16.4542 11.332L19.6854 8.52702L20.0826 8.86941L16.4542 11.9971Z" fill="black"/>
</g>
</svg>
