<svg width="34" height="20" viewBox="0 0 34 20" fill="none" xmlns="http://www.w3.org/2000/svg">
<path d="M26.5742 0.0612221C25.6299 0.18273 24.4661 0.689014 23.6282 1.33031C22.3979 2.28212 21.3405 3.84823 20.8085 5.50884C20.7154 5.81261 20.5358 7.85125 20.4893 7.85125C20.2565 7.858 9.19507 6.97506 8.74286 6.94131L8.13984 5.09706C7.77408 3.33519 6.57705 1.9716 5.05415 1.57332C4.55539 1.44507 3.81721 1.44507 3.39825 1.57332C1.55615 2.14036 0.0066502 5.00255 0 7.85125C0 9.61987 0.558617 11.024 1.68915 12.0838L2.14136 12.5091L1.64925 16.1543C1.38324 18.1592 1.17044 19.8603 1.18374 19.9413C1.19704 20.0696 1.34334 20.0426 4.56869 19.2933C6.42409 18.8612 7.96029 18.49 7.98024 18.4765C7.99354 18.4562 7.71423 16.8969 7.35512 15.0067L6.69675 11.5707L6.90291 11.3007C7.02261 11.1522 7.24872 10.7674 7.41497 10.4502L7.71423 9.87638L14.0984 10.1532C17.6097 10.3084 20.4893 10.4434 20.4893 10.4434C20.4959 10.4502 20.5159 10.5717 20.5425 10.7202C20.6223 11.2197 20.9747 12.2255 21.2806 12.8398C22.0255 14.3182 23.0828 15.4253 24.4062 16.1003C26.255 17.0521 28.5892 16.8361 30.4579 15.5603C30.9633 15.2092 31.901 14.2642 32.2934 13.6904C34.5145 10.4974 34.5744 5.89362 32.433 2.82216C31.3623 1.28981 29.9059 0.344742 28.1968 0.0814743C27.5385 -0.019783 27.2193 -0.0265331 26.5742 0.0612221ZM5.1539 3.16643C5.56622 3.36219 6.05168 3.82123 6.30439 4.25326C6.49059 4.57728 6.95611 6.88731 6.90291 6.94131C6.86301 6.98181 1.8022 6.79873 1.75565 6.75148C1.7357 6.73797 2.07486 4.94855 2.23447 4.64478C2.54703 4.02374 3.04579 3.43645 3.49135 3.14618C3.76401 2.96392 3.83051 2.95042 4.28938 2.97067C4.64849 2.99092 4.8879 3.04492 5.1539 3.16643ZM28.4429 3.15968C29.5601 3.58496 30.4978 4.79329 30.8968 6.30539C31.0764 6.98044 31.1429 8.41829 31.0232 9.16084C30.5976 11.8745 28.7355 13.8794 26.7737 13.7376C25.2242 13.6296 23.9939 12.4078 23.4287 10.4164C23.2956 9.94389 23.2757 9.72787 23.2757 8.6613C23.2757 7.60148 23.2956 7.37197 23.4287 6.87243C23.9474 4.94855 25.1777 3.47695 26.6341 3.04492C27.0663 2.91667 27.9707 2.97742 28.4429 3.15968ZM4.13642 9.72112C5.20711 9.76163 6.08493 9.81563 6.08493 9.84263C6.08493 9.98439 5.63937 10.5514 5.38666 10.7337C5.19381 10.8687 5.1007 10.9902 5.114 11.051C5.18716 11.3007 6.28444 17.1331 6.28444 17.2546C6.28444 17.3559 6.22459 17.4031 6.07163 17.4369C5.95193 17.4639 5.21376 17.6327 4.43568 17.8149C3.65761 17.9972 2.97929 18.1457 2.93274 18.1457C2.87289 18.1457 2.95934 17.3289 3.26525 15.0202C3.498 13.3056 3.68421 11.8408 3.68421 11.7665C3.68421 11.672 3.58446 11.5842 3.3384 11.4695C2.88619 11.2535 2.24777 10.5987 1.97511 10.0586L1.75565 9.64012H1.97511C2.09481 9.64012 3.07239 9.67387 4.13642 9.72112Z" fill="#222222"/>
<path d="M4.13642 9.72112C5.20711 9.76163 6.08493 9.81563 6.08493 9.84263C6.08493 9.98439 5.63937 10.5514 5.38666 10.7337C5.19381 10.8687 5.1007 10.9902 5.114 11.051C5.18716 11.3007 6.28444 17.1331 6.28444 17.2546C6.28444 17.3559 6.22459 17.4031 6.07163 17.4369C5.95193 17.4639 5.21376 17.6327 4.43568 17.8149C3.65761 17.9972 2.97929 18.1457 2.93274 18.1457C2.87289 18.1457 2.95934 17.3289 3.26525 15.0202C3.498 13.3056 3.68421 11.8408 3.68421 11.7665C3.68421 11.672 3.58446 11.5842 3.3384 11.4695C2.88619 11.2535 2.24777 10.5987 1.97511 10.0586L1.75565 9.64012H1.97511C2.09481 9.64012 3.07239 9.67387 4.13642 9.72112Z" fill="#A7D4BC"/>
<path d="M5.1539 3.16643C5.56622 3.36219 6.05168 3.82123 6.30439 4.25326C6.49059 4.57728 6.95611 6.88731 6.90291 6.94131C6.86301 6.98181 1.8022 6.79873 1.75565 6.75148C1.7357 6.73797 2.07486 4.94855 2.23447 4.64478C2.54703 4.02374 3.04579 3.43645 3.49135 3.14618C3.76401 2.96392 3.83051 2.95042 4.28938 2.97067C4.64849 2.99092 4.8879 3.04492 5.1539 3.16643Z" fill="#A7D4BC"/>
<path d="M28.4429 3.15968C29.5601 3.58496 30.4978 4.79329 30.8968 6.30539C31.0764 6.98044 31.1429 8.41829 31.0232 9.16084C30.5976 11.8745 28.7355 13.8794 26.7737 13.7376C25.2242 13.6296 23.9939 12.4078 23.4287 10.4164C23.2956 9.94389 23.2757 9.72787 23.2757 8.6613C23.2757 7.60148 23.2956 7.37197 23.4287 6.87243C23.9474 4.94855 25.1777 3.47695 26.6341 3.04492C27.0663 2.91667 27.9707 2.97742 28.4429 3.15968Z" fill="#A7D4BC"/>
</svg>
