<svg width="30" height="30" viewBox="0 0 30 30" fill="none" xmlns="http://www.w3.org/2000/svg">
<g clip-path="url(#clip0_755_430)">
<path d="M13.8867 0.0407963C11.7128 0.245874 10.0605 0.708765 8.25582 1.61697C6.82027 2.33181 5.65426 3.18728 4.41793 4.41775C3.10543 5.73611 2.2734 6.89626 1.48824 8.52517C0.562458 10.4353 0.0995678 12.3338 0.0175365 14.5017C-0.0703541 16.9978 0.445271 19.3767 1.55855 21.615C2.33785 23.1912 3.14644 24.3045 4.41793 25.5818C5.71285 26.8709 6.83199 27.6736 8.40816 28.447C9.50972 28.9861 10.2187 29.2498 11.3378 29.531C14.2675 30.2693 17.2089 30.1287 20.0683 29.115C20.9414 28.8045 22.4531 28.0486 23.2324 27.5271C25.3711 26.1033 27.1406 24.1404 28.3066 21.8845C29.3671 19.8455 29.8945 17.8181 29.9824 15.4978C30.0703 13.0017 29.5546 10.6228 28.4414 8.38454C27.7148 6.9197 26.9003 5.76541 25.7578 4.58767C24.4921 3.27517 23.25 2.37283 21.5918 1.55252C19.8574 0.697046 18.2402 0.234156 16.3183 0.0583744C15.7207 0.00564003 14.3671 -0.00607872 13.8867 0.0407963ZM19.3242 8.35525C19.7753 8.50173 20.2207 8.7654 20.5722 9.07009L20.7773 9.25173L21.1875 9.14626C21.6738 9.01736 22.3183 8.7654 22.664 8.57204C22.7988 8.49001 22.9101 8.45486 22.9101 8.49001C22.9101 8.61892 22.5644 9.24001 22.33 9.53884C22.1953 9.70876 21.955 9.94314 21.791 10.0603C21.6328 10.1834 21.5273 10.2888 21.5566 10.3006C21.6503 10.3299 22.7929 10.0369 23.1035 9.90798L23.3847 9.78494L23.2793 9.96658C23.1328 10.2244 22.207 11.1912 21.9257 11.3845L21.6972 11.5486L21.6621 12.4392C21.6035 13.8982 21.2871 15.117 20.5957 16.4939C19.1894 19.2947 16.6816 21.1756 13.6933 21.6736C11.4785 22.0427 9.46285 21.7615 7.52926 20.8006C6.47457 20.2791 6.47457 20.3025 7.54097 20.2967C8.32613 20.2908 8.54879 20.2674 9.02926 20.1385C9.97262 19.8924 10.8457 19.4939 11.4726 19.0193L11.6718 18.8787L11.3847 18.8377C10.9687 18.7849 10.3828 18.5916 10.0195 18.3806C9.5859 18.1345 8.97652 17.5076 8.75387 17.0799C8.42574 16.4588 8.4023 16.4939 9.12887 16.4939C9.98433 16.4939 10.1015 16.4353 9.60933 16.2713C9.3984 16.201 9.09957 16.0662 8.93551 15.9724C8.52535 15.7322 7.91597 15.0935 7.68746 14.6658C7.48238 14.2791 7.26558 13.5232 7.26558 13.1951C7.26558 13.0252 7.28316 13.0017 7.37105 13.0427C7.65816 13.1658 8.26168 13.3474 8.50191 13.3767L8.76558 13.4119L8.32027 12.9607C7.61129 12.24 7.30074 11.4783 7.3066 10.4881C7.31246 9.94314 7.37691 9.62673 7.59371 9.1404L7.74019 8.81814L8.48433 9.55056C9.88472 10.9334 11.5605 11.8416 13.3886 12.2107C13.8515 12.3045 14.8125 12.4158 14.8476 12.3806C14.8593 12.3689 14.8418 12.2224 14.8125 12.0525C14.707 11.4197 14.9003 10.4881 15.2695 9.86111C15.75 9.03494 16.7519 8.34939 17.6777 8.2029C18.1699 8.12673 18.832 8.19119 19.3242 8.35525Z" fill="#243E2E"/>
</g>
<defs>
<clipPath id="clip0_755_430">
<rect width="30" height="30" fill="white"/>
</clipPath>
</defs>
</svg>
