<svg width="49" height="47" viewBox="0 0 49 47" fill="none" xmlns="http://www.w3.org/2000/svg">
<g filter="url(#filter0_d_1054_64)">
<mask id="path-1-inside-1_1054_64" fill="white">
<path d="M24.2631 38.4994L8.66455 21.0715L4 -0.000488281L44.5262 -0.000484384L39.5728 21.0715L24.2631 38.4994Z"/>
</mask>
<path d="M24.2631 38.4994L8.66455 21.0715L4 -0.000488281L44.5262 -0.000484384L39.5728 21.0715L24.2631 38.4994Z" fill="#DEB35B"/>
<path d="M24.2631 38.4994L23.518 39.1663L24.2701 40.0067L25.0144 39.1594L24.2631 38.4994ZM4 -0.000488281L4 -1.00049L2.75443 -1.00049L3.02364 0.215643L4 -0.000488281ZM44.5262 -0.000484384L45.4997 0.22835L45.7885 -1.00048L44.5262 -1.00048V-0.000484384ZM8.66455 21.0715L7.68819 21.2876L7.74478 21.5433L7.91942 21.7384L8.66455 21.0715ZM39.5728 21.0715L40.3241 21.7314L40.489 21.5436L40.5462 21.3003L39.5728 21.0715ZM4 0.999512L44.5262 0.999516V-1.00048L4 -1.00049L4 0.999512ZM25.0082 37.8325L9.40968 20.4046L7.91942 21.7384L23.518 39.1663L25.0082 37.8325ZM9.64091 20.8553L4.97636 -0.216619L3.02364 0.215643L7.68819 21.2876L9.64091 20.8553ZM43.5527 -0.229319L38.5993 20.8426L40.5462 21.3003L45.4997 0.22835L43.5527 -0.229319ZM38.8215 20.4115L23.5118 37.8394L25.0144 39.1594L40.3241 21.7314L38.8215 20.4115Z" fill="#243E2E" mask="url(#path-1-inside-1_1054_64)"/>
</g>
<defs>
<filter id="filter0_d_1054_64" x="0" y="-0.000488281" width="48.5262" height="46.5" filterUnits="userSpaceOnUse" color-interpolation-filters="sRGB">
<feFlood flood-opacity="0" result="BackgroundImageFix"/>
<feColorMatrix in="SourceAlpha" type="matrix" values="0 0 0 0 0 0 0 0 0 0 0 0 0 0 0 0 0 0 127 0" result="hardAlpha"/>
<feOffset dy="4"/>
<feGaussianBlur stdDeviation="2"/>
<feComposite in2="hardAlpha" operator="out"/>
<feColorMatrix type="matrix" values="0 0 0 0 0 0 0 0 0 0 0 0 0 0 0 0 0 0 0.25 0"/>
<feBlend mode="normal" in2="BackgroundImageFix" result="effect1_dropShadow_1054_64"/>
<feBlend mode="normal" in="SourceGraphic" in2="effect1_dropShadow_1054_64" result="shape"/>
</filter>
</defs>
</svg>
