<svg width="53" height="51" viewBox="0 0 53 51" fill="none" xmlns="http://www.w3.org/2000/svg">
<g filter="url(#filter0_d_2127_207)">
<path d="M26.5 42.75L9.17948 23.3981L4 0L49 4.32743e-06L43.4997 23.3981L26.5 42.75Z" fill="#01DA5A"/>
</g>
<path d="M35.4016 4.52856C32.9222 4.70708 31.1171 5.45091 29.6989 6.87412C28.603 7.97003 27.9534 9.18496 27.6161 10.7668C27.4823 11.3966 27.4277 12.9984 27.512 13.7719C27.5765 14.3373 27.8294 15.6266 27.9286 15.9241L27.993 16.1125L28.3897 15.572C30.4873 12.6859 33.1354 10.1222 36.1554 8.04937C36.4975 7.81135 36.8447 7.60307 36.924 7.5882C37.1273 7.54853 37.3852 7.76672 37.3852 7.97499C37.3852 8.20806 37.3108 8.29236 36.7752 8.65436C33.5024 10.8462 30.4873 13.881 28.3451 17.139C27.3434 18.6664 26.9021 19.6433 26.4062 21.4136C26.3417 21.6367 26.2921 21.7161 26.1781 21.7756C25.7913 21.9789 25.6276 21.8103 25.4342 21.0169C24.7549 18.2201 22.9002 14.1091 21.001 11.1933C20.2819 10.0875 19.0521 8.456 18.8538 8.34691C18.8141 8.32211 18.7248 8.32707 18.6405 8.36178C18.4719 8.43121 17.5 9.4577 17.5 9.5668C17.5 9.60647 17.7232 9.94367 17.9959 10.3156C20.2175 13.3256 22.3002 17.5308 23.7036 21.8252C24.3334 23.7443 24.864 26.0204 25.0127 27.4039C25.0574 27.8205 25.1565 28.0238 25.3598 28.118C25.5532 28.2122 25.6822 28.2172 25.8508 28.1379C26.0491 28.0486 26.1037 27.9246 26.3516 26.9775C27.3285 23.2087 28.603 19.7028 29.5947 18.0614C29.9518 17.4762 30.0658 17.387 30.4824 17.387C30.9783 17.387 32.0692 17.2531 32.7684 17.1093C33.9239 16.8712 35.0396 16.4398 35.7983 15.939C36.2446 15.6464 36.8992 15.0067 37.167 14.605C37.6728 13.8414 37.8959 13.2265 38.6943 10.3652C39.0067 9.24447 39.334 8.15351 39.4183 7.93532C39.7605 7.07247 40.301 6.16499 40.9109 5.441C41.0795 5.24264 41.2035 5.07404 41.1986 5.06412C41.1589 5.02941 39.6117 4.74675 39.0464 4.67237C37.8364 4.51864 36.3587 4.45913 35.4016 4.52856Z" fill="black"/>
<defs>
<filter id="filter0_d_2127_207" x="0" y="0" width="53" height="50.75" filterUnits="userSpaceOnUse" color-interpolation-filters="sRGB">
<feFlood flood-opacity="0" result="BackgroundImageFix"/>
<feColorMatrix in="SourceAlpha" type="matrix" values="0 0 0 0 0 0 0 0 0 0 0 0 0 0 0 0 0 0 127 0" result="hardAlpha"/>
<feOffset dy="4"/>
<feGaussianBlur stdDeviation="2"/>
<feComposite in2="hardAlpha" operator="out"/>
<feColorMatrix type="matrix" values="0 0 0 0 0 0 0 0 0 0 0 0 0 0 0 0 0 0 0.25 0"/>
<feBlend mode="normal" in2="BackgroundImageFix" result="effect1_dropShadow_2127_207"/>
<feBlend mode="normal" in="SourceGraphic" in2="effect1_dropShadow_2127_207" result="shape"/>
</filter>
</defs>
</svg>
