<svg width="48" height="48" viewBox="0 0 48 48" fill="none" xmlns="http://www.w3.org/2000/svg">
<g filter="url(#filter0_b_639_345)">
<mask id="path-1-inside-1_639_345" fill="white">
<path d="M0 5C0 2.23858 2.23858 0 5 0H43C45.7614 0 48 2.23858 48 5V43C48 45.7614 45.7614 48 43 48H5C2.23858 48 0 45.7614 0 43V5Z"/>
</mask>
<path d="M0 5C0 2.23858 2.23858 0 5 0H43C45.7614 0 48 2.23858 48 5V43C48 45.7614 45.7614 48 43 48H5C2.23858 48 0 45.7614 0 43V5Z" fill="#E5DCCF"/>
<path d="M5 1H43V-1H5V1ZM47 5V43H49V5H47ZM43 47H5V49H43V47ZM1 43V5H-1V43H1ZM5 47C2.79086 47 1 45.2091 1 43H-1C-1 46.3137 1.68629 49 5 49V47ZM47 43C47 45.2091 45.2091 47 43 47V49C46.3137 49 49 46.3137 49 43H47ZM43 1C45.2091 1 47 2.79086 47 5H49C49 1.68629 46.3137 -1 43 -1V1ZM5 -1C1.68629 -1 -1 1.68629 -1 5H1C1 2.79086 2.79086 1 5 1V-1Z" fill="#262626" mask="url(#path-1-inside-1_639_345)"/>
</g>
<line x1="24.5" y1="9.5" x2="24.5" y2="38.5" stroke="#262626" stroke-linecap="round"/>
<line x1="38.5" y1="24.5" x2="9.5" y2="24.5" stroke="#262626" stroke-linecap="round"/>
<defs>
<filter id="filter0_b_639_345" x="-4" y="-4" width="56" height="56" filterUnits="userSpaceOnUse" color-interpolation-filters="sRGB">
<feFlood flood-opacity="0" result="BackgroundImageFix"/>
<feGaussianBlur in="BackgroundImageFix" stdDeviation="2"/>
<feComposite in2="SourceAlpha" operator="in" result="effect1_backgroundBlur_639_345"/>
<feBlend mode="normal" in="SourceGraphic" in2="effect1_backgroundBlur_639_345" result="shape"/>
</filter>
</defs>
</svg>
