<svg width="48" height="48" viewBox="0 0 48 48" fill="none" xmlns="http://www.w3.org/2000/svg">
<mask id="path-2-inside-1_639_346" fill="white">
<path d="M0 5C0 2.23858 2.23858 0 5 0H43C45.7614 0 48 2.23858 48 5V43C48 45.7614 45.7614 48 43 48H5C2.23858 48 0 45.7614 0 43V5Z"/>
</mask>
<path d="M0 5C0 2.23858 2.23858 0 5 0H43C45.7614 0 48 2.23858 48 5V43C48 45.7614 45.7614 48 43 48H5C2.23858 48 0 45.7614 0 43V5Z" fill="#E5DCCF"/>
<path d="M5 1H43V-1H5V1ZM47 5V43H49V5H47ZM43 47H5V49H43V47ZM1 43V5H-1V43H1ZM5 47C2.79086 47 1 45.2091 1 43H-1C-1 46.3137 1.68629 49 5 49V47ZM47 43C47 45.2091 45.2091 47 43 47V49C46.3137 49 49 46.3137 49 43H47ZM43 1C45.2091 1 47 2.79086 47 5H49C49 1.68629 46.3137 -1 43 -1V1ZM5 -1C1.68629 -1 -1 1.68629 -1 5H1C1 2.79086 2.79086 1 5 1V-1Z" fill="#262626" mask="url(#path-2-inside-1_639_346)"/>
<line x1="38.5" y1="24.5" x2="9.5" y2="24.5" stroke="#262626" stroke-linecap="round"/>
</svg>
