<svg width="32" height="32" viewBox="0 0 32 32" fill="none" xmlns="http://www.w3.org/2000/svg">
<path d="M6.08325 25.4168C7.63881 24.3891 9.20895 23.5904 10.7937 23.021C12.3781 22.4516 14.1142 22.1668 16.002 22.1668C17.8895 22.1668 19.618 22.4516 21.1874 23.021C22.7569 23.5904 24.3471 24.3891 25.9583 25.4168C27.1249 24.1113 28.0416 22.6807 28.7083 21.1252C29.3749 19.5696 29.7083 17.8613 29.7083 16.0002C29.7083 12.1946 28.3749 8.9585 25.7083 6.29183C23.0416 3.62516 19.8055 2.29183 15.9999 2.29183C12.1944 2.29183 8.95825 3.62516 6.29159 6.29183C3.62492 8.9585 2.29159 12.1946 2.29159 16.0002C2.29159 17.8613 2.62492 19.5696 3.29159 21.1252C3.95825 22.6807 4.88881 24.1113 6.08325 25.4168ZM15.9937 16.9585C14.5256 16.9585 13.2916 16.4564 12.2916 15.4522C11.2916 14.4484 10.7916 13.2122 10.7916 11.7439C10.7916 10.2759 11.2937 9.04183 12.2978 8.04183C13.3017 7.04183 14.5378 6.54183 16.0062 6.54183C17.4742 6.54183 18.7083 7.04391 19.7083 8.04808C20.7083 9.05197 21.2083 10.2881 21.2083 11.7564C21.2083 13.2245 20.7062 14.4585 19.702 15.4585C18.6981 16.4585 17.462 16.9585 15.9937 16.9585ZM15.9762 31.1668C13.9212 31.1668 11.966 30.7714 10.1108 29.9806C8.25547 29.1895 6.64117 28.0992 5.26784 26.7097C3.89478 25.32 2.81242 23.7177 2.02075 21.9027C1.22909 20.0877 0.833252 18.1132 0.833252 15.9793C0.833252 13.8732 1.232 11.9039 2.0295 10.0714C2.827 8.23919 3.91686 6.63405 5.29909 5.256C6.68103 3.87794 8.28006 2.79627 10.0962 2.011C11.912 1.226 13.8869 0.833496 16.0208 0.833496C18.1269 0.833496 20.0945 1.23266 21.9237 2.031C23.7526 2.82933 25.3516 3.91377 26.7208 5.28433C28.0896 6.65489 29.1728 8.25683 29.9703 10.0902C30.7678 11.9235 31.1666 13.8897 31.1666 15.9889C31.1666 18.1206 30.7741 20.0934 29.9891 21.9072C29.2038 23.7211 28.1212 25.3191 26.7412 26.701C25.3612 28.0832 23.7509 29.1731 21.9103 29.9706C20.0695 30.7681 18.0914 31.1668 15.9762 31.1668Z" fill="#6A6A6A"/>
</svg>
