<svg width="32" height="32" viewBox="0 0 32 32" fill="none" xmlns="http://www.w3.org/2000/svg">
<mask id="mask0_4318_298" style="mask-type:alpha" maskUnits="userSpaceOnUse" x="0" y="0" width="32" height="32">
<rect width="32" height="32" fill="#D9D9D9"/>
</mask>
<g mask="url(#mask0_4318_298)">
<path d="M15.5 23.023C17 23.023 18.3843 22.6598 19.6528 21.9334C20.9213 21.2071 21.8889 20.242 22.5555 19.0383H8.44446C9.11112 20.242 10.0787 21.2071 11.3472 21.9334C12.6157 22.6598 14 23.023 15.5 23.023ZM8.41667 13.5843L10.25 11.9157L12.1111 13.5843L12.8889 12.887L10.25 10.5211L7.63888 12.887L8.41667 13.5843ZM18.8889 13.5843L20.75 11.9157L22.5833 13.5843L23.3889 12.887L20.75 10.5211L18.1111 12.887L18.8889 13.5843ZM15.5073 29C13.5024 29 11.6172 28.6589 9.85175 27.9768C8.08622 27.2946 6.55046 26.3688 5.24446 25.1994C3.93849 24.03 2.90458 22.6548 2.14275 21.074C1.38092 19.4931 1 17.8039 1 16.0065C1 14.2091 1.38043 12.5189 2.14129 10.9361C2.90218 9.35317 3.93479 7.97628 5.23913 6.80541C6.54349 5.63452 8.07731 4.70756 9.84058 4.02454C11.6039 3.34151 13.4879 3 15.4928 3C17.4976 3 19.3828 3.34108 21.1483 4.02323C22.9138 4.7054 24.4495 5.63119 25.7555 6.8006C27.0615 7.97002 28.0954 9.34517 28.8573 10.926C29.6191 12.5069 30 14.1961 30 15.9935C30 17.7909 29.6196 19.4811 28.8587 21.0639C28.0978 22.6468 27.0652 24.0237 25.7609 25.1946C24.4565 26.3655 22.9227 27.2924 21.1594 27.9755C19.3961 28.6585 17.5121 29 15.5073 29ZM15.4973 28.1034C19.2653 28.1034 22.4578 26.9312 25.0747 24.5866C27.6916 22.242 29 19.3806 29 16.0024C29 12.6242 27.6924 9.76202 25.0773 7.41582C22.4623 5.06964 19.2707 3.89655 15.5027 3.89655C11.7347 3.89655 8.54225 5.06884 5.92533 7.41342C3.30844 9.75798 2 12.6194 2 15.9976C2 19.3758 3.30756 22.238 5.92267 24.5842C8.53775 26.9304 11.7293 28.1034 15.4973 28.1034Z" fill="#000E06"/>
</g>
</svg>
