<svg version="1.1" xmlns="http://www.w3.org/2000/svg" xmlns:xlink="http://www.w3.org/1999/xlink" x="0px" y="0px" viewBox="0 0 50 50" style="enable-background:new 0 0 50 50;" xml:space="preserve">
<g id="Layer_1">
	<path d="M19.38,19.265C13.464,20.481,9,25.729,9,32v17h32V32c0-6.271-4.464-11.519-10.38-12.735C33.261,17.464,35,14.431,35,11
		c0-5.514-4.486-10-10-10S15,5.486,15,11C15,14.431,16.739,17.464,19.38,19.265z M28,21c6.065,0,11,4.935,11,11v15H11V32
		c0-6.065,4.935-11,11-11H28z M25,3c4.411,0,8,3.589,8,8s-3.589,8-8,8s-8-3.589-8-8S20.589,3,25,3z" id="id_101" style="fill: rgb(0, 14, 6);"></path>
</g>
<g>
</g>
</svg>