<svg width="32" height="32" viewBox="0 0 32 32" fill="none" xmlns="http://www.w3.org/2000/svg">
<path d="M16.0519 18.9091C17.6797 18.9091 19.0649 18.3377 20.2078 17.1948C21.3507 16.0519 21.9221 14.6494 21.9221 12.987C21.9221 11.3593 21.3507 9.97403 20.2078 8.83117C19.0649 7.68831 17.6797 7.11688 16.0519 7.11688C14.3896 7.11688 12.987 7.68831 11.8442 8.83117C10.7013 9.97403 10.1299 11.3593 10.1299 12.987C10.1299 14.6494 10.7013 16.0519 11.8442 17.1948C12.987 18.3377 14.3896 18.9091 16.0519 18.9091ZM2.80519 32C2.00866 32 1.34199 31.7316 0.805195 31.1948C0.268398 30.658 0 29.9913 0 29.1948V2.80519C0 2.00866 0.268398 1.34199 0.805195 0.805195C1.34199 0.268398 2.00866 0 2.80519 0H29.1948C29.9913 0 30.658 0.268398 31.1948 0.805195C31.7316 1.34199 32 2.00866 32 2.80519V29.1948C32 29.9913 31.7316 30.658 31.1948 31.1948C30.658 31.7316 29.9913 32 29.1948 32H2.80519ZM2.28571 30.8571H29.7143C30.0952 30.5801 30.355 30.4069 30.4935 30.3377C30.632 30.2684 30.7532 30.0433 30.8571 29.6623C28.9177 27.7922 26.6926 26.303 24.1818 25.1948C21.671 24.0866 18.9437 23.5325 16 23.5325C13.0563 23.5325 10.329 24.0866 7.81818 25.1948C5.30736 26.303 3.08225 27.7922 1.14286 29.6623C1.24675 30.0433 1.36797 30.2684 1.50649 30.3377C1.64502 30.4069 1.90476 30.5801 2.28571 30.8571Z" fill="black"/>
</svg>
