<svg width="40" height="40" viewBox="0 0 40 40" fill="none" xmlns="http://www.w3.org/2000/svg">
<path d="M10.0833 29.4168C11.6388 28.3891 13.2089 27.5904 14.7937 27.021C16.3781 26.4516 18.1142 26.1668 20.002 26.1668C21.8895 26.1668 23.618 26.4516 25.1874 27.021C26.7569 27.5904 28.3471 28.3891 29.9583 29.4168C31.1249 28.1113 32.0416 26.6807 32.7083 25.1252C33.3749 23.5696 33.7083 21.8613 33.7083 20.0002C33.7083 16.1946 32.3749 12.9585 29.7083 10.2918C27.0416 7.62516 23.8055 6.29183 19.9999 6.29183C16.1944 6.29183 12.9583 7.62516 10.2916 10.2918C7.62492 12.9585 6.29159 16.1946 6.29159 20.0002C6.29159 21.8613 6.62492 23.5696 7.29159 25.1252C7.95825 26.6807 8.88881 28.1113 10.0833 29.4168ZM19.9937 20.9585C18.5256 20.9585 17.2916 20.4564 16.2916 19.4522C15.2916 18.4484 14.7916 17.2122 14.7916 15.7439C14.7916 14.2759 15.2937 13.0418 16.2978 12.0418C17.3017 11.0418 18.5378 10.5418 20.0062 10.5418C21.4742 10.5418 22.7083 11.0439 23.7083 12.0481C24.7083 13.052 25.2083 14.2881 25.2083 15.7564C25.2083 17.2245 24.7062 18.4585 23.702 19.4585C22.6981 20.4585 21.462 20.9585 19.9937 20.9585ZM19.9762 35.1668C17.9212 35.1668 15.966 34.7714 14.1108 33.9806C12.2555 33.1895 10.6412 32.0992 9.26784 30.7097C7.89478 29.32 6.81242 27.7177 6.02075 25.9027C5.22909 24.0877 4.83325 22.1132 4.83325 19.9793C4.83325 17.8732 5.232 15.9039 6.0295 14.0714C6.827 12.2392 7.91686 10.6341 9.29909 9.256C10.681 7.87794 12.2801 6.79627 14.0962 6.011C15.912 5.226 17.8869 4.8335 20.0208 4.8335C22.1269 4.8335 24.0945 5.23266 25.9237 6.031C27.7526 6.82933 29.3516 7.91377 30.7208 9.28433C32.0896 10.6549 33.1728 12.2568 33.9703 14.0902C34.7678 15.9235 35.1666 17.8897 35.1666 19.9889C35.1666 22.1206 34.7741 24.0934 33.9891 25.9072C33.2038 27.7211 32.1212 29.3191 30.7412 30.701C29.3612 32.0832 27.7509 33.1731 25.9103 33.9706C24.0695 34.7681 22.0914 35.1668 19.9762 35.1668Z" fill="#6A6A6A"/>
</svg>
