<svg width="23" height="20" viewBox="0 0 23 20" fill="none" xmlns="http://www.w3.org/2000/svg">
<path d="M0 12.8731V12.0522H10.6786V12.8731H0ZM0 6.82836V6.00746H16.7646V6.82836H0ZM0 0.820896V0H16.7646V0.820896H0ZM11.9481 20V17.0896L19.8263 9.25373C19.9508 9.12935 20.0738 9.04851 20.1955 9.01119C20.3172 8.97388 20.4389 8.95522 20.5606 8.95522C20.6934 8.95522 20.826 8.9801 20.9585 9.02985C21.091 9.0796 21.2114 9.15423 21.3198 9.25373L22.7013 10.6716C22.8009 10.796 22.8755 10.9204 22.9253 11.0448C22.9751 11.1692 23 11.2935 23 11.4179C23 11.5423 22.9689 11.6667 22.9067 11.791C22.8444 11.9154 22.7771 12.0398 22.7047 12.1642L14.8604 20H11.9481ZM12.9935 18.9552H14.4123L19.789 13.5821L19.0795 12.8731L18.4075 12.1269L12.9935 17.5373V18.9552ZM19.0795 12.8731L18.4075 12.1269L19.789 13.5821L19.0795 12.8731Z" fill="black"/>
</svg>
