<svg width="24" height="24" viewBox="0 0 24 24" fill="none" xmlns="http://www.w3.org/2000/svg">
<circle cx="12" cy="12" r="12" fill="white"/>
<mask id="mask0_3915_210" style="mask-type:alpha" maskUnits="userSpaceOnUse" x="3" y="3" width="18" height="18">
<rect x="3" y="3" width="18" height="18" fill="#D9D9D9"/>
</mask>
<g mask="url(#mask0_3915_210)">
<path d="M12 15.3746C12.7375 15.3746 13.3594 15.1215 13.8656 14.6152C14.3719 14.109 14.625 13.4871 14.625 12.7496C14.625 12.0121 14.3719 11.3902 13.8656 10.884C13.3594 10.3777 12.7375 10.1246 12 10.1246C11.2625 10.1246 10.6406 10.3777 10.1344 10.884C9.6281 11.3902 9.37498 12.0121 9.37498 12.7496C9.37498 13.4871 9.6281 14.109 10.1344 14.6152C10.6406 15.1215 11.2625 15.3746 12 15.3746ZM12 14.8496C11.4 14.8496 10.9 14.6496 10.5 14.2496C10.1 13.8496 9.89998 13.3496 9.89998 12.7496C9.89998 12.1496 10.1 11.6496 10.5 11.2496C10.9 10.8496 11.4 10.6496 12 10.6496C12.6 10.6496 13.1 10.8496 13.5 11.2496C13.9 11.6496 14.1 12.1496 14.1 12.7496C14.1 13.3496 13.9 13.8496 13.5 14.2496C13.1 14.6496 12.6 14.8496 12 14.8496ZM6.59998 17.7746C6.27498 17.7746 6.00623 17.6684 5.79373 17.4559C5.58123 17.2434 5.47498 16.9746 5.47498 16.6496V8.84961C5.47498 8.52461 5.58123 8.25586 5.79373 8.04336C6.00623 7.83086 6.27498 7.72461 6.59998 7.72461H8.77498L10.1625 6.22461H13.8375L15.225 7.72461H17.4C17.725 7.72461 17.9937 7.83086 18.2062 8.04336C18.4187 8.25586 18.525 8.52461 18.525 8.84961V16.6496C18.525 16.9746 18.4187 17.2434 18.2062 17.4559C17.9937 17.6684 17.725 17.7746 17.4 17.7746H6.59998ZM6.59998 17.2496H17.4C17.575 17.2496 17.7187 17.1934 17.8312 17.0809C17.9437 16.9684 18 16.8246 18 16.6496V8.84961C18 8.67461 17.9437 8.53086 17.8312 8.41836C17.7187 8.30586 17.575 8.24961 17.4 8.24961H15L13.6125 6.74961H10.3875L8.99998 8.24961H6.59998C6.42498 8.24961 6.28123 8.30586 6.16873 8.41836C6.05623 8.53086 5.99998 8.67461 5.99998 8.84961V16.6496C5.99998 16.8246 6.05623 16.9684 6.16873 17.0809C6.28123 17.1934 6.42498 17.2496 6.59998 17.2496Z" fill="black"/>
</g>
</svg>
