<svg width="15" height="16" viewBox="0 0 15 16" fill="none" xmlns="http://www.w3.org/2000/svg">
<path d="M2.67919 16C2.21596 16 1.82055 15.8362 1.49296 15.5086C1.16536 15.181 1.00156 14.7856 1.00156 14.3224V1.6025H0V0.726135H3.95618V0H10.241V0.726135H14.1972V1.6025H13.1956V14.3224C13.1956 14.7814 13.0308 15.1758 12.7011 15.5055C12.3714 15.8352 11.977 16 11.518 16H2.67919ZM12.3192 1.6025H1.87793V14.3224C1.87793 14.5561 1.95722 14.748 2.11581 14.8983C2.27439 15.0485 2.46218 15.1236 2.67919 15.1236H11.518C11.7183 15.1236 11.9019 15.0402 12.0689 14.8732C12.2358 14.7063 12.3192 14.5227 12.3192 14.3224V1.6025ZM4.93271 13.0454H5.80908V3.63067H4.93271V13.0454ZM8.41315 13.0454H9.28952V3.63067H8.41315V13.0454Z" fill="black"/>
</svg>
