<svg width="22" height="24" viewBox="0 0 22 24" fill="none" xmlns="http://www.w3.org/2000/svg">
<path d="M10.1795 0.0416126C9.8323 0.149427 9.58362 0.365057 9.43348 0.702564C9.34902 0.885382 9.33494 1.01195 9.33494 1.60259V2.29167L6.8059 2.30573C4.39416 2.31979 4.27216 2.32448 4.17832 2.40886C4.07978 2.49792 4.07978 2.51198 4.07978 5.18861C4.07978 7.81367 4.07978 7.87461 4.17363 7.96836C4.26747 8.06212 4.32847 8.06212 6.80121 8.06212H9.33494V9.18714V10.3122H6.81528C4.92436 10.3169 4.26747 10.3309 4.1924 10.3731C4.08917 10.4294 1.56482 12.7122 1.36775 12.9232C1.13314 13.1763 1.1566 13.2044 2.52201 14.4513C3.21175 15.0795 3.87802 15.6795 4.00002 15.7873L4.22524 15.9842H6.78244H9.33494V19.6874V23.3906H4.76014C0.246336 23.3906 0.185338 23.3906 0.091496 23.4844C-0.0304987 23.6062 -0.0304987 23.7844 0.091496 23.9062C0.185338 24 0.246335 24 10.6957 24C21.145 24 21.206 24 21.2998 23.9062C21.4218 23.7844 21.4218 23.6062 21.2998 23.4844C21.206 23.3906 21.145 23.3906 16.4904 23.3906H11.7748V19.6874V15.9842H14.4869C17.0581 15.9842 17.2083 15.9795 17.2787 15.8998C17.3491 15.8201 17.3584 15.5623 17.3584 13.1669C17.3584 10.9544 17.3491 10.5044 17.2928 10.4247C17.2271 10.3403 17.1379 10.3356 14.5009 10.3215L11.7748 10.3122L11.7842 9.19652L11.7983 8.08555L14.5244 8.06212L17.2552 8.03868L17.5274 7.78086C17.6822 7.63554 18.325 7.04022 18.9631 6.45427C19.6013 5.86831 20.1362 5.3433 20.1502 5.29642C20.169 5.24486 20.169 5.16517 20.1549 5.1183C20.1362 5.07142 19.4699 4.42453 18.6675 3.68857L17.2083 2.34323H14.4916H11.7748V1.64946C11.7748 1.26977 11.7514 0.880693 11.7232 0.782253C11.6575 0.538498 11.3807 0.243177 11.0945 0.111925C10.8505 -0.00526619 10.4329 -0.03339 10.1795 0.0416126ZM10.9396 0.660378C10.9866 0.688503 11.071 0.777567 11.1179 0.857256C11.1977 0.988508 11.2118 1.09632 11.2118 1.64946V2.29635H10.6018H9.99184V1.5979V0.899445L10.1326 0.754129C10.2124 0.679127 10.3203 0.604124 10.3813 0.594749C10.522 0.561937 10.827 0.599438 10.9396 0.660378ZM18.1655 4.0214C18.8271 4.63078 19.3667 5.15111 19.3667 5.17924C19.362 5.20267 18.8224 5.72769 18.1608 6.33708L16.9596 7.44804L10.827 7.45273H4.68976V5.17924V2.90574H10.827H16.9596L18.1655 4.0214ZM11.1649 9.18714V10.3122H10.5549H9.94491V9.21996C9.94491 8.61525 9.95899 8.10899 9.97776 8.09493C9.99184 8.07618 10.2687 8.06212 10.5877 8.06212H11.1649V9.18714ZM16.7391 13.1576L16.7485 15.3748H10.5924L4.43169 15.3701L3.22113 14.2638L2.00587 13.1576L2.11849 13.0544C2.17948 12.9982 2.72846 12.4919 3.34312 11.9341L4.45515 10.9216L10.5924 10.9309L16.725 10.945L16.7391 13.1576ZM11.1649 19.6874V23.3906H10.5549H9.94491V19.6874V15.9842H10.5549H11.1649V19.6874Z" fill="black"/>
<path d="M18.1655 4.0214C18.8271 4.63078 19.3667 5.15111 19.3667 5.17924C19.362 5.20267 18.8224 5.72769 18.1608 6.33708L16.9596 7.44804L10.827 7.45273H4.68976V5.17924V2.90574H10.827H16.9596L18.1655 4.0214Z" fill="#01DA5A"/>
<path d="M16.7391 13.1576L16.7485 15.3748H10.5924L4.43169 15.3701L3.22113 14.2638L2.00587 13.1576L2.11849 13.0544C2.17948 12.9982 2.72846 12.4919 3.34312 11.9341L4.45515 10.9216L10.5924 10.9309L16.725 10.945L16.7391 13.1576Z" fill="black"/>
</svg>
