<svg xmlns="http://www.w3.org/2000/svg" width="16" height="15" fill="none" viewBox="0 0 16 15"><path fill="#000" d="M1.65311 14.2714C1.39781 14.317 1.1824 14.2562 1.00688 14.089C0.831361 13.9219 0.767536 13.7167 0.815405 13.4736L1.3659 10.9206L4.33377 13.7471L1.65311 14.2714ZM4.33377 13.7471L1.3659 10.9206L11.8731 0.913698C12.1125 0.685751 12.4077 0.571777 12.7587 0.571777C13.1097 0.571777 13.4129 0.685751 13.6682 0.913698L14.841 2.03064C15.0803 2.27378 15.2 2.56252 15.2 2.89684C15.2 3.23116 15.0803 3.5123 14.841 3.74024L4.33377 13.7471ZM12.2321 1.30121L2.44295 10.6015L4.66885 12.7214L14.4341 3.39832C14.5777 3.26156 14.6495 3.09059 14.6495 2.88544C14.6495 2.68029 14.5777 2.50933 14.4341 2.37256L13.3092 1.30121C13.1656 1.16444 12.9861 1.09606 12.7707 1.09606C12.5553 1.09606 12.3758 1.16444 12.2321 1.30121Z"/></svg>