<svg width="33" height="32" viewBox="0 0 33 32" fill="none" xmlns="http://www.w3.org/2000/svg">
<g clip-path="url(#clip0_494_450)">
<path d="M15.079 0.043741C12.7103 0.268741 10.9478 0.768741 8.954 1.78124C6.5915 2.98749 4.47275 4.88749 2.92275 7.18749C2.27275 8.16249 1.47275 9.80624 1.08525 10.9687C0.779004 11.9062 0.529004 12.975 0.379004 14.0312C0.272754 14.7687 0.272754 17.2312 0.379004 17.9687C0.641504 19.8125 1.129 21.425 1.8915 22.9687C2.74775 24.7187 3.5915 25.8937 4.979 27.2875C6.36025 28.6625 7.554 29.5187 9.23525 30.3437C10.4103 30.9187 11.1665 31.2 12.3603 31.5C15.4853 32.2875 18.6228 32.1375 21.6728 31.0562C22.604 30.725 24.2165 29.9187 25.0478 29.3625C27.329 27.8437 29.2165 25.75 30.4603 23.3437C31.5915 21.1687 32.154 19.0062 32.2478 16.5312C32.3415 13.8687 31.7915 11.3312 30.604 8.94374C29.829 7.38124 28.9603 6.14999 27.7415 4.89374C26.3915 3.49374 25.0665 2.53124 23.2978 1.65624C21.4478 0.743741 19.7228 0.249991 17.6728 0.062491C17.0353 0.00624104 15.5915 -0.00625896 15.079 0.043741ZM25.5103 8.96874C25.8853 9.17499 26.1978 9.51249 26.404 9.93124L26.5478 10.2187V16V21.7812L26.404 22.0687C26.1978 22.4875 25.8853 22.825 25.5103 23.0312L25.1728 23.2187H16.2665H7.36025L7.02275 23.0312C6.64775 22.825 6.33525 22.4875 6.129 22.0687L5.98525 21.7812V16V10.2187L6.16025 9.86249C6.37275 9.43124 6.78525 9.04999 7.229 8.88124C7.5415 8.75624 7.704 8.75624 16.3603 8.76874L25.1728 8.78124L25.5103 8.96874Z" fill="black"/>
<path d="M9.32895 10.4625C9.52895 10.65 16.1477 15.8813 16.2289 15.9125C16.2914 15.9375 22.7789 10.8688 23.2039 10.4625C23.2789 10.3875 22.2977 10.375 16.2664 10.375C10.2602 10.375 9.25395 10.3875 9.32895 10.4625Z" fill="black"/>
<path d="M7.6416 16.3312C7.6416 21.1812 7.64785 21.425 7.7541 21.5187C7.86035 21.6187 8.5416 21.625 16.2791 21.625C24.3541 21.625 24.6916 21.6187 24.7916 21.5125C24.8854 21.4062 24.8916 20.975 24.8791 16.3312L24.8604 11.2625L23.5479 12.3125C18.3166 16.475 16.6041 17.8125 16.4479 17.8437C16.3479 17.8687 16.1854 17.8687 16.0916 17.8437C15.9979 17.825 14.9041 17.0062 13.6666 16.025C11.8854 14.6062 8.62285 12.025 7.78535 11.3562L7.6416 11.2437V16.3312Z" fill="black"/>
</g>
<defs>
<clipPath id="clip0_494_450">
<rect width="32" height="32" fill="white" transform="translate(0.266602)"/>
</clipPath>
</defs>
</svg>
