<svg width="33" height="32" viewBox="0 0 33 32" fill="none" xmlns="http://www.w3.org/2000/svg">
<g clip-path="url(#clip0_492_429)">
<path d="M14.6354 0.13125C12.6604 0.30625 10.6104 0.9 8.82911 1.80625C7.21036 2.6375 6.14786 3.41875 4.78536 4.78125C3.34786 6.2125 2.58536 7.275 1.72286 9.03125C1.17286 10.1562 0.872864 10.9375 0.591614 12.0375C-0.545886 16.425 0.235364 21.15 2.71036 24.8437C3.95411 26.7 5.60411 28.3312 7.44161 29.5062C9.14786 30.6062 11.2666 31.45 13.1479 31.775L13.3791 31.8187V25.5937V19.375H11.4729H9.56661V17.1562V14.9375H11.4729H13.3791V13.2625C13.3791 12.3437 13.4104 11.2812 13.4416 10.9062C13.6979 8.2125 15.1166 6.4875 17.5666 5.89375C17.9541 5.8 18.3041 5.78125 19.5666 5.78125C20.4104 5.78125 21.4291 5.80625 21.8354 5.83125L22.5666 5.8875V7.88125V9.875H21.4916C19.2854 9.88125 18.6166 10.0687 18.2604 10.7812C18.0479 11.2125 18.0041 11.625 18.0041 13.3187V14.9375H20.2291H22.4541L22.4166 15.1375C22.3791 15.3812 21.8791 19.225 21.8791 19.3125C21.8791 19.35 21.1604 19.3812 19.9604 19.3875L18.0354 19.4062L18.0166 25.675L18.0041 31.9375L18.2666 31.9C21.1416 31.4875 23.8854 30.2875 26.1604 28.4562C26.9416 27.825 28.2104 26.525 28.7916 25.7437C32.4604 20.875 33.0916 14.4875 30.4416 9.09375C29.5541 7.275 28.7979 6.23125 27.3479 4.78125C25.9854 3.41875 24.9229 2.6375 23.3041 1.80625C20.6541 0.45625 17.6104 -0.13125 14.6354 0.13125Z" fill="black"/>
</g>
<defs>
<clipPath id="clip0_492_429">
<rect width="32" height="32" fill="white" transform="translate(0.0666504)"/>
</clipPath>
</defs>
</svg>
