<svg width="16" height="15" viewBox="0 0 16 15" fill="none" xmlns="http://www.w3.org/2000/svg">
<path d="M8 14.68L6.84 13.64C5.49333 12.4267 4.38 11.38 3.5 10.5C2.62 9.62 1.92 8.83 1.4 8.13C0.88 7.43 0.516667 6.78667 0.31 6.2C0.103333 5.61333 0 5.01333 0 4.4C0 3.14667 0.42 2.1 1.26 1.26C2.1 0.42 3.14667 0 4.4 0C5.09333 0 5.75333 0.146667 6.38 0.44C7.00667 0.733333 7.54667 1.14667 8 1.68C8.45333 1.14667 8.99333 0.733333 9.62 0.44C10.2467 0.146667 10.9067 0 11.6 0C12.8533 0 13.9 0.42 14.74 1.26C15.58 2.1 16 3.14667 16 4.4C16 5.01333 15.8967 5.61333 15.69 6.2C15.4833 6.78667 15.12 7.43 14.6 8.13C14.08 8.83 13.38 9.62 12.5 10.5C11.62 11.38 10.5067 12.4267 9.16 13.64L8 14.68Z" fill="#FF0000"/>
</svg>
