<svg width="32" height="32" viewBox="0 0 32 32" fill="none" xmlns="http://www.w3.org/2000/svg">
<g clip-path="url(#clip0_492_424)">
<path d="M14.4689 0.0687288C9.46886 0.587479 5.08761 3.30623 2.42511 7.54373C-1.34989 13.5437 -0.643643 21.475 4.12511 26.7C6.76886 29.5937 10.0689 31.325 14.0314 31.8875C14.7689 31.9937 17.2251 31.9875 18.0001 31.8875C21.6189 31.3875 24.8564 29.7812 27.3189 27.2687C28.1314 26.4437 28.3001 26.25 28.8376 25.5375C30.4376 23.4062 31.4814 20.8062 31.8876 17.9687C31.9939 17.2312 31.9939 14.7687 31.8876 14.0312C31.6189 12.1375 31.1251 10.525 30.3439 8.94373C29.5064 7.26873 28.6564 6.07498 27.3251 4.73123C24.8564 2.23123 21.7689 0.674979 18.2189 0.149979C17.4501 0.0374788 15.2314 -0.0125212 14.4689 0.0687288ZM19.7689 6.87498C21.5689 6.99373 22.6189 7.38748 23.5814 8.29998C24.5564 9.23123 25.0064 10.375 25.1251 12.2312C25.2064 13.45 25.2064 18.5187 25.1251 19.7562C25.0064 21.6312 24.5439 22.7875 23.5439 23.7312C22.6126 24.6125 21.5376 25.0125 19.7689 25.125C18.5689 25.2 13.4314 25.2 12.2314 25.125C10.4314 25.0062 9.38136 24.6125 8.41886 23.7C7.44386 22.7687 6.99386 21.625 6.87511 19.7687C6.79386 18.5562 6.80011 13.3437 6.87511 12.1937C7.00011 10.3625 7.45011 9.22498 8.41886 8.29998C9.34386 7.42498 10.4501 6.98748 12.0564 6.88123C13.1126 6.80623 18.6876 6.80623 19.7689 6.87498Z" fill="black"/>
<path d="M13.7188 8.50625C11.8438 8.54375 11.5375 8.5625 11.1188 8.675C9.7875 9.0375 9.03125 9.7875 8.675 11.1187C8.5625 11.5375 8.54375 11.85 8.50625 13.8C8.4875 15.0062 8.4875 16.9937 8.50625 18.2062C8.54375 20.15 8.5625 20.4625 8.675 20.8812C9.03125 22.2125 9.7875 22.9687 11.1188 23.325C11.5375 23.4375 11.85 23.4562 13.8 23.4937C15.0063 23.5125 16.9938 23.5125 18.2063 23.4937C20.1625 23.4562 20.4625 23.4375 20.8938 23.3187C22.1875 22.975 22.975 22.1937 23.325 20.8937C23.4375 20.4562 23.4563 20.1687 23.4938 18.2C23.5125 16.9937 23.5125 15.0062 23.4938 13.7937C23.4563 11.8437 23.4375 11.5375 23.325 11.1187C22.9688 9.7875 22.2063 9.025 20.8813 8.675C20.3938 8.55 20.2688 8.54375 16.75 8.48125C16.25 8.475 14.8875 8.4875 13.7188 8.50625ZM21.2938 10.0687C21.5313 10.1562 21.8125 10.425 21.9125 10.6687C22.2188 11.375 21.675 12.1875 20.9063 12.1875C20.3188 12.1875 19.8125 11.6875 19.8125 11.1C19.8125 10.3437 20.5875 9.8 21.2938 10.0687ZM17.5188 11.5437C18.275 11.8062 18.6938 12.075 19.2875 12.6562C19.8625 13.225 20.2188 13.7875 20.4813 14.5312C20.6438 14.9937 20.6563 15.1 20.6563 16C20.6563 16.9 20.6438 17.0062 20.4813 17.4687C20.2313 18.1875 19.8563 18.775 19.3188 19.3187C18.775 19.8562 18.1875 20.2312 17.4688 20.4812C17.0063 20.6437 16.9 20.6562 16 20.6562C15.1 20.6562 14.9938 20.6437 14.5313 20.4812C13.7875 20.2187 13.225 19.8625 12.6563 19.2875C12.075 18.6937 11.8125 18.275 11.5375 17.5187C11.35 16.9875 11.3438 16.9312 11.3438 16C11.35 15.1187 11.3625 14.9875 11.5188 14.5312C11.8438 13.5625 12.5375 12.65 13.375 12.0937C14.2875 11.4875 14.9438 11.3062 16.125 11.3312C16.875 11.35 17.025 11.375 17.5188 11.5437Z" fill="black"/>
<path d="M15.2626 13.0374C13.6189 13.4749 12.6189 15.1249 13.0314 16.7124C13.3314 17.8561 14.1439 18.6686 15.2939 18.9686C17.4439 19.5311 19.5314 17.4436 18.9689 15.2936C18.5314 13.6249 16.8626 12.6061 15.2626 13.0374Z" fill="black"/>
</g>
<defs>
<clipPath id="clip0_492_424">
<rect width="32" height="32" fill="white"/>
</clipPath>
</defs>
</svg>
