<svg width="157" height="45" viewBox="0 0 157 45" fill="none" xmlns="http://www.w3.org/2000/svg">
<path d="M86.5946 8.52726C86.8933 8.98364 86.968 9.24514 87.1129 9.66944C87.4446 10.6344 85.6593 11.447 85.3286 10.4822C85.1828 10.0578 85.2566 10.3191 84.9579 9.8627C84.3852 8.99034 86.022 7.6549 86.5946 8.52726ZM85.2834 7.12182C86.1187 7.7788 86.295 8.07068 86.5946 8.52726C87.1663 9.39942 85.5296 10.7349 84.9579 9.8627C84.6583 9.40612 84.8345 9.69801 83.9991 9.04204C83.1532 8.37641 84.4378 6.45518 85.2834 7.12182ZM83.1518 5.60758C84.3655 6.28874 84.4491 6.46504 85.2834 7.12182C86.1304 7.78664 84.8449 9.70767 83.9991 9.04204C83.1647 8.38526 83.2482 8.56155 82.0343 7.88141C81.0244 7.31536 82.1418 5.04255 83.1518 5.60758ZM80.0355 4.05009C81.8308 4.68763 81.9379 4.92744 83.1518 5.60758C84.1615 6.17465 83.0442 8.44746 82.0343 7.88141C80.8204 7.20127 80.9275 7.44107 79.1323 6.80353C77.8989 6.36461 78.8028 3.61238 80.0355 4.05009ZM75.2575 2.46071C78.1464 3.04918 78.2403 3.41255 80.0355 4.05009C81.2682 4.4878 80.3649 7.24124 79.1323 6.80353C77.3372 6.16498 77.43 6.52918 74.541 5.94173C72.9738 5.62212 73.6892 2.14191 75.2575 2.46071ZM68.5505 1.18338C72.2271 1.45927 72.3676 1.87307 75.2575 2.46071C76.8247 2.78033 76.1095 6.25951 74.541 5.94173C71.6521 5.35327 71.7928 5.76604 68.1153 5.48995C66.1651 5.3449 66.5996 1.03712 68.5505 1.18338ZM60.4143 0.673244C64.7101 0.584297 64.873 0.907294 68.5505 1.18338C70.5002 1.33046 70.065 5.63703 68.1153 5.48995C64.4384 5.21507 64.6004 5.53787 60.3047 5.62682C58.054 5.67306 58.1637 0.719481 60.4143 0.673244ZM50.3748 1.13727C55.9194 0.518511 56.1194 0.762388 60.4143 0.673244C62.6661 0.626189 62.5564 5.57976 60.3047 5.62682C56.0098 5.71596 56.2098 5.95986 50.6652 6.57862C48.1831 6.85545 47.8936 1.4143 50.3748 1.13727ZM39.0186 2.64979C44.6563 1.62612 44.8299 1.75704 50.3748 1.13727C52.856 0.860244 53.1464 6.30159 50.6652 6.57862C45.1203 7.19839 45.2931 7.32909 39.6546 8.35257C37.047 8.82546 36.4099 3.1235 39.0186 2.64979ZM28.7012 4.9322C33.1748 3.7204 33.3801 3.67327 39.0186 2.64979C41.6262 2.17691 42.2633 7.87886 39.6546 8.35257C34.0169 9.37624 34.222 9.33012 29.7491 10.5431C27.1753 11.2411 26.1271 5.63117 28.7012 4.9322ZM20.2897 7.66671C24.0338 6.28391 24.2282 6.14521 28.7012 4.9322C31.2768 4.23464 32.325 9.84456 29.7491 10.5431C25.2773 11.7553 25.4727 11.6168 21.7286 12.9996C19.2714 13.9065 17.8323 8.57461 20.2897 7.66671ZM13.804 10.455C16.3673 9.23312 16.5456 9.0495 20.2897 7.66671C22.7459 6.75963 24.1848 12.0925 21.7286 12.9996C17.9844 14.3824 18.1636 14.199 15.5992 15.4217C13.3003 16.5177 11.5051 11.551 13.804 10.455ZM9.12254 13.2219C10.9711 11.9735 11.2396 11.6776 13.804 10.455C16.1018 9.3597 17.8972 14.3254 15.5992 15.4217C13.0358 16.6445 13.3054 16.3478 11.4566 17.5972C9.41606 18.9773 7.08198 14.602 9.12254 13.2219ZM5.67594 15.9723C7.0999 14.7408 7.27467 14.4715 9.12254 13.2219C11.1638 11.8429 13.4979 16.2182 11.4566 17.5972C9.60876 18.8467 9.78444 18.5776 8.3614 19.8092C6.55725 21.371 3.87271 17.5343 5.67594 15.9723ZM3.26295 18.4727C3.99849 17.5678 4.25268 17.205 5.67594 15.9723C7.47874 14.4124 10.1644 18.2483 8.3614 19.8092C6.93722 21.0417 7.19162 20.678 6.45608 21.5829C4.97235 23.4071 1.77991 20.2981 3.26295 18.4727ZM1.87906 20.6105C2.34201 19.7807 2.52854 19.3768 3.26295 18.4727C4.74781 16.6477 7.94003 19.7578 6.45608 21.5829C5.72075 22.4869 5.90636 22.0828 5.4425 22.9124C4.31819 24.9245 0.75475 22.6226 1.87906 20.6105ZM1.0091 23.3648C1.26413 22.1768 1.41519 21.4402 1.87906 20.6105C3.00337 18.5984 6.56772 20.9005 5.4425 22.9124C4.97954 23.7422 5.1306 23.0056 4.87558 24.1936C4.41496 26.3402 0.548483 25.5114 1.0091 23.3648ZM0.844815 26.3784C0.828084 25.084 0.753853 24.5538 1.0091 23.3648C1.46971 21.2182 5.33619 22.047 4.87558 24.1936C4.62033 25.3827 4.54632 24.8515 4.56214 26.1457C4.58827 28.1868 0.870028 28.4193 0.844815 26.3784ZM1.60934 29.5794C1.15016 28.2959 0.860849 27.6716 0.844815 26.3784C0.818906 24.3362 4.53715 24.1037 4.56214 26.1457C4.57817 27.4388 4.28885 26.8145 4.74734 28.0968C5.35381 29.7934 2.21512 31.2748 1.60934 29.5794ZM3.51612 32.6387C2.47131 31.1026 2.0676 30.8627 1.60934 29.5794C1.00264 27.8838 4.14064 26.4012 4.74734 28.0968C5.20651 29.3803 4.8019 29.1401 5.84579 30.676C6.68849 31.9157 4.3586 33.8794 3.51612 32.6387ZM6.55613 35.7181C4.92157 34.2727 4.55979 34.1756 3.51612 32.6387C2.67364 31.398 5.0031 29.4363 5.84579 30.676C6.88947 32.2129 6.5279 32.1148 8.16247 33.5602C9.11004 34.3975 7.5037 36.5554 6.55613 35.7181ZM10.667 38.4364C8.44784 37.2178 8.19048 37.1645 6.55613 35.7181C5.60856 34.8807 7.21512 32.7218 8.16247 33.5602C9.79704 35.0056 9.53991 34.9512 11.7602 36.1691C12.7681 36.7219 11.6749 38.9893 10.667 38.4364ZM15.8196 40.7163C13.0391 39.7624 12.8883 39.6545 10.667 38.4364C9.66026 37.8827 10.7532 35.6164 11.7602 36.1691C13.9813 37.3881 13.8304 37.2802 16.6108 38.2341C17.7225 38.616 16.9322 41.0984 15.8196 40.7163ZM22.1589 42.5146C18.716 41.8514 18.6 41.6703 15.8196 40.7163C14.7078 40.3344 15.4982 37.852 16.6108 38.2341C19.391 39.189 19.276 39.0081 22.7189 39.6713C24.0005 39.9177 23.4405 42.761 22.1589 42.5146ZM30.3043 43.8034C25.6942 43.3752 25.6019 43.1779 22.1589 42.5146C20.8764 42.2681 21.4376 39.4239 22.7189 39.6713C26.161 40.3344 26.0686 40.137 30.6785 40.5662C32.1438 40.7013 31.7694 43.9395 30.3043 43.8034ZM39.7851 44.6096C34.9673 44.3991 34.9153 44.2317 30.3043 43.8034C28.8392 43.6672 29.2134 40.4301 30.6785 40.5662C35.2895 40.9946 35.2366 40.827 40.0541 41.0385C41.6731 41.109 41.4038 44.6811 39.7851 44.6096ZM48.7609 44.9437C44.6719 44.9699 44.6024 44.8221 39.7851 44.6096C38.1661 44.5391 38.4352 40.968 40.0541 41.0385C44.8717 41.25 44.8023 41.1012 48.8925 41.0742C50.6495 41.0629 50.5191 44.9316 48.7609 44.9437ZM56.7854 44.8444C52.9425 45.083 52.8513 44.9157 48.7609 44.9437C47.0038 44.955 47.1354 41.0855 48.8925 41.0742C52.9826 41.0472 52.8912 40.8809 56.7353 40.6415C58.6483 40.5236 58.6987 44.7255 56.7854 44.8444ZM64.4117 44.2354C60.7703 44.7373 60.6293 44.606 56.7854 44.8444C54.8731 44.9635 54.822 40.7604 56.7353 40.6415C60.578 40.4039 60.4367 40.2736 64.0779 39.7727C66.1149 39.4924 66.4496 43.9553 64.4117 44.2354ZM71.5755 42.9892C68.2438 43.7767 68.0526 43.7355 64.4117 44.2354C62.3738 44.5155 62.0399 40.0528 64.0779 39.7727C67.719 39.2718 67.527 39.2305 70.8599 38.4421C72.9435 37.9498 73.66 42.4971 71.5755 42.9892ZM77.9851 41.1046C75.1209 42.1288 74.9081 42.2019 71.5755 42.9892C69.4918 43.4815 68.7753 38.9342 70.8599 38.4421C74.1916 37.6546 73.9785 37.7288 76.8417 36.7044C78.8681 35.9809 80.0114 40.3811 77.9851 41.1046ZM83.0409 38.9803C81.0433 39.9522 80.8481 40.0812 77.9851 41.1046C75.9585 41.8291 74.8161 37.4291 76.8417 36.7044C79.7055 35.6822 79.5102 35.8112 81.5082 34.8372C83.4256 33.9043 84.9585 38.0464 83.0409 38.9803ZM86.8598 36.6777C85.3185 37.7787 85.0398 38.0065 83.0409 38.9803C81.1244 39.9134 79.5906 35.7711 81.5082 34.8372C83.5058 33.8653 83.2271 34.0931 84.7697 32.9903C86.4911 31.7591 88.583 35.4469 86.8598 36.6777ZM90.0671 33.7365C88.643 35.2261 88.4022 35.5758 86.8598 36.6777C85.1383 37.9088 83.0474 34.2212 84.7697 32.9903C86.311 31.8892 86.0715 32.2371 87.4953 30.7485C88.9099 29.2675 91.4824 32.2567 90.0671 33.7365ZM92.606 30.0437C91.7408 31.6835 91.4903 32.2467 90.0671 33.7365C88.6516 35.2174 86.0801 32.2283 87.4953 30.7485C88.9194 29.2589 88.6689 29.8221 89.5343 28.1813C90.4479 26.45 93.5196 28.3123 92.606 30.0437ZM93.7066 25.957C93.5369 27.5968 93.4714 28.4029 92.606 30.0437C91.6924 31.775 88.6207 29.9127 89.5343 28.1813C90.3995 26.5415 90.3339 27.3476 90.5034 25.7087C90.6857 23.9388 93.8887 24.1881 93.7066 25.957ZM93.4044 22.4976C93.6757 23.7693 93.8751 24.3179 93.7066 25.957C93.5242 27.7269 90.3203 27.4774 90.5034 25.7087C90.6719 24.0697 90.8724 24.6175 90.6011 23.3458C90.2763 21.8204 93.0794 20.9732 93.4044 22.4976ZM92.4782 20.0203C92.9111 20.9327 93.133 21.2259 93.4044 22.4976C93.7291 24.023 90.9261 24.8702 90.6011 23.3458C90.33 22.0731 90.5528 22.3665 90.1192 21.4529C89.5178 20.1856 91.877 18.7519 92.4782 20.0203ZM90.8218 17.8149C91.7428 18.9663 92.0455 19.1069 92.4782 20.0203C93.0786 21.2875 90.7204 22.7213 90.1192 21.4529C89.6863 20.5406 89.9887 20.6822 89.0676 19.5308C88.3245 18.6016 90.0787 16.8856 90.8218 17.8149ZM87.8238 15.1355C89.6242 16.7037 89.9007 16.6635 90.8218 17.8149C91.5651 18.7431 89.8108 20.4601 89.0676 19.5308C88.1466 18.3794 88.4241 18.3394 86.6239 16.7701C85.9062 16.1448 87.1061 14.5102 87.8238 15.1355ZM84.0191 12.3769C85.8708 13.596 86.0227 13.5661 87.8238 15.1355C88.5415 15.7608 87.3416 17.3954 86.6239 16.7701C84.8226 15.2017 84.9745 15.1717 83.123 13.9516C82.4259 13.4922 83.3212 11.9173 84.0191 12.3769ZM80.158 10.3508C82.0272 11.067 82.1676 11.1567 84.0191 12.3769C84.7163 12.8352 83.82 14.4109 83.123 13.9516C81.2715 12.7314 81.4119 12.8212 79.5427 12.105C78.758 11.8042 79.3732 10.05 80.158 10.3508ZM75.1251 8.87438C78.1888 9.48141 78.2888 9.63467 80.158 10.3508C80.9418 10.6515 80.3277 12.4048 79.5427 12.105C77.6736 11.3889 77.7737 11.5411 74.7102 10.9331C73.7826 10.7491 74.1984 8.69064 75.1251 8.87438ZM67.66 7.87355C71.9559 8.11289 72.0634 8.26673 75.1251 8.87438C76.0536 9.05852 75.6387 11.1172 74.7102 10.9331C71.6483 10.3265 71.7549 10.4801 67.4588 10.2418C66.3859 10.1816 66.5871 7.81341 67.66 7.87355ZM59.1348 7.80121C63.261 7.59816 63.3633 7.63402 67.66 7.87355C68.7332 7.93268 68.531 10.3007 67.4588 10.2418C63.163 10.0024 63.2643 10.0381 59.138 10.2422C58.028 10.2962 58.0246 7.85627 59.1348 7.80121ZM51.8974 8.57685C54.9097 8.1083 55.0078 8.00406 59.1348 7.80121C60.245 7.74615 60.2482 10.1871 59.138 10.2422C55.0111 10.444 55.1092 10.3398 52.098 10.8075C51.0784 10.966 50.8788 8.73556 51.8974 8.57685ZM45.3864 10.8125C48.8675 9.65991 48.8863 9.04458 51.8974 8.57685C52.917 8.41834 53.1176 10.649 52.098 10.8075C49.0857 11.276 49.1044 10.6607 45.6234 11.8123C45.1629 11.9648 44.9258 10.9651 45.3864 10.8125ZM45.6335 11.8145C42.1423 12.9649 41.9052 11.9651 45.3864 10.8125C45.846 10.6598 46.0838 11.6608 45.6234 11.8123C42.1425 12.9639 41.9054 11.9641 45.3973 10.8149C45.8576 10.6633 46.0936 11.6639 45.6335 11.8145ZM42.0453 12.4691C49.0065 10.1647 49.1254 10.6652 45.6335 11.8145C45.1732 11.966 44.9379 10.9666 45.3973 10.8149C48.8895 9.66463 49.0065 10.1647 42.0453 12.4691Z" fill="#01DA5A"/>
<path d="M33.013 14.768L26.557 32H24.589L18.157 14.768H20.029L25.597 29.936L31.213 14.768H33.013ZM38.4835 32.24C34.9315 32.24 32.5795 29.576 32.5795 25.568C32.5795 21.872 35.0275 19.112 38.3875 19.112C41.9875 19.112 44.3395 22.016 44.0515 26.072H34.2595C34.4035 29.072 35.9875 30.92 38.4595 30.92C40.5715 30.92 42.0355 29.744 42.4435 27.728H44.0995C43.5235 30.536 41.3875 32.24 38.4835 32.24ZM38.3635 20.408C36.0835 20.408 34.4755 22.16 34.2595 24.92H42.2995C42.1555 22.088 40.6915 20.408 38.3635 20.408ZM51.3696 36.896C48.1536 36.896 46.1376 35.216 45.9936 32.384H47.6016C47.7456 34.448 49.0896 35.552 51.3456 35.552C53.8416 35.552 55.1616 34.232 55.1616 31.736V29.096C54.3936 30.872 52.8576 31.904 50.9856 31.904C47.7936 31.904 45.6576 29.336 45.6576 25.496C45.6576 21.656 47.7696 19.112 50.9616 19.112C52.8576 19.112 54.4416 20.192 55.2576 22.04V19.352H56.8176V31.712C56.8176 34.976 54.8256 36.896 51.3696 36.896ZM47.3376 25.496C47.3376 28.592 48.8016 30.464 51.2256 30.464C53.6016 30.464 55.1856 28.544 55.1856 25.616C55.1856 22.52 53.6256 20.552 51.2256 20.552C48.8256 20.552 47.3376 22.424 47.3376 25.496ZM68.2446 32V29.696C67.5006 31.28 65.9646 32.24 63.9966 32.24C61.3806 32.24 59.6766 30.776 59.6766 28.496C59.6766 26.024 61.6446 24.728 65.4846 24.728C66.2526 24.728 66.8286 24.776 68.0766 24.872V23.816C68.0766 21.704 66.9486 20.456 65.0286 20.456C62.9646 20.456 61.6686 21.728 61.6446 23.792H60.1086C60.1806 20.984 62.1246 19.112 65.0046 19.112C67.9566 19.112 69.6846 20.84 69.6846 23.768V32H68.2446ZM61.2846 28.448C61.2846 29.984 62.4606 31.016 64.2366 31.016C66.5886 31.016 68.0766 29.48 68.0766 27.104V25.976C66.9966 25.88 66.2526 25.856 65.5566 25.856C62.6766 25.856 61.2846 26.696 61.2846 28.448ZM74.8986 24.632V32H73.2186V19.352H74.7786V21.728C75.5946 20.168 77.1306 19.112 78.9546 19.112C81.5946 19.112 83.2986 20.792 83.2986 23.792V32H81.6186V24.368C81.6186 21.944 80.5146 20.576 78.4506 20.576C76.4826 20.576 74.8986 22.28 74.8986 24.632ZM93.7714 32H91.9714V14.768H93.7714V22.328H103.563V14.768H105.363V32H103.563V23.888H93.7714V32ZM116.901 32V29.696C116.157 31.28 114.621 32.24 112.653 32.24C110.037 32.24 108.333 30.776 108.333 28.496C108.333 26.024 110.301 24.728 114.141 24.728C114.909 24.728 115.485 24.776 116.733 24.872V23.816C116.733 21.704 115.605 20.456 113.685 20.456C111.621 20.456 110.325 21.728 110.301 23.792H108.765C108.837 20.984 110.781 19.112 113.661 19.112C116.613 19.112 118.341 20.84 118.341 23.768V32H116.901ZM109.941 28.448C109.941 29.984 111.117 31.016 112.893 31.016C115.245 31.016 116.733 29.48 116.733 27.104V25.976C115.653 25.88 114.909 25.856 114.213 25.856C111.333 25.856 109.941 26.696 109.941 28.448ZM123.555 25.232V32H121.875V19.352H123.435V22.232C124.299 20.36 126.171 19.16 128.259 19.16V20.912C125.595 20.816 123.555 22.472 123.555 25.232ZM132.496 16.424C132.496 17.168 131.944 17.696 131.128 17.696C130.336 17.696 129.784 17.168 129.784 16.424C129.784 15.704 130.336 15.176 131.128 15.176C131.944 15.176 132.496 15.704 132.496 16.424ZM131.992 32H130.312V19.352H131.992V32ZM142.137 30.392V31.88C141.489 32.144 140.937 32.24 140.313 32.24C138.225 32.24 136.617 31.16 136.617 28.424V20.768H133.641V19.352H136.617V15.608H138.297V19.352H142.257V20.768H138.297V28.064C138.297 30.032 139.257 30.704 140.649 30.704C141.177 30.704 141.609 30.608 142.137 30.392ZM152.573 32V29.696C151.829 31.28 150.293 32.24 148.325 32.24C145.709 32.24 144.005 30.776 144.005 28.496C144.005 26.024 145.973 24.728 149.813 24.728C150.581 24.728 151.157 24.776 152.405 24.872V23.816C152.405 21.704 151.277 20.456 149.357 20.456C147.293 20.456 145.997 21.728 145.973 23.792H144.437C144.509 20.984 146.453 19.112 149.333 19.112C152.285 19.112 154.013 20.84 154.013 23.768V32H152.573ZM145.613 28.448C145.613 29.984 146.789 31.016 148.565 31.016C150.917 31.016 152.405 29.48 152.405 27.104V25.976C151.325 25.88 150.581 25.856 149.885 25.856C147.005 25.856 145.613 26.696 145.613 28.448Z" fill="#000E06"/>
</svg>
