<svg width="22" height="25" viewBox="0 0 22 25" fill="none" xmlns="http://www.w3.org/2000/svg">
<path d="M4.08543 17.953H4.93911V17.6018C4.93911 15.7989 5.49298 14.2594 6.60072 12.9833C7.70846 11.7072 9.04486 11.0692 10.6099 11.0692C12.175 11.0692 13.5114 11.7072 14.6191 12.9833C15.7269 14.2594 16.2808 15.7989 16.2808 17.6018V17.953H17.1344V17.6018C17.1344 15.5103 16.5016 13.7348 15.2358 12.2752C13.9701 10.8156 12.4304 10.0858 10.6169 10.0858C8.80326 10.0858 7.2613 10.8156 5.99095 12.2752C4.72061 13.7348 4.08543 15.5103 4.08543 17.6018V17.953ZM5.06106 7.8029C5.71148 7.61559 6.37714 7.29949 7.05804 6.85462C7.73895 6.40975 8.31314 5.90635 8.78063 5.34441L8.10989 4.71222C7.70338 5.18051 7.2054 5.60782 6.61596 5.99415C6.02652 6.38049 5.46757 6.6556 4.93911 6.8195L5.06106 7.8029ZM16.1588 7.8029L16.2808 6.8195C15.732 6.63219 15.1679 6.35122 14.5887 5.97659C14.0094 5.60196 13.5165 5.18051 13.11 4.71222L12.4392 5.34441C12.9067 5.88293 13.4809 6.38049 14.1618 6.83706C14.8427 7.29364 15.5084 7.61559 16.1588 7.8029ZM10.6152 24.5558C9.14826 24.5558 7.76885 24.2351 6.477 23.5938C5.18513 22.9524 4.06138 22.082 3.10575 20.9826C2.15015 19.8831 1.39362 18.5902 0.836172 17.1039C0.278724 15.6177 0 14.0296 0 12.3397C0 10.6498 0.278369 9.06074 0.835105 7.57257C1.39186 6.08439 2.14744 4.78989 3.10185 3.68907C4.05628 2.58822 5.1786 1.71673 6.46883 1.07457C7.75905 0.432408 9.13765 0.111328 10.6046 0.111328C12.0716 0.111328 13.451 0.431997 14.7429 1.07334C16.0347 1.7147 17.1585 2.5851 18.1141 3.68454C19.0697 4.784 19.8262 6.07687 20.3837 7.56316C20.9411 9.04945 21.2199 10.6375 21.2199 12.3274C21.2199 14.0173 20.9415 15.6064 20.3848 17.0945C19.828 18.5827 19.0724 19.8772 18.118 20.9781C17.1636 22.0789 16.0413 22.9504 14.751 23.5925C13.4608 24.2347 12.0822 24.5558 10.6152 24.5558ZM10.607 23.7831C13.3808 23.7831 15.7313 22.6743 17.6585 20.4566C19.5856 18.2389 20.5491 15.5323 20.5491 12.337C20.5491 9.14157 19.5865 6.43389 17.6614 4.21392C15.7363 1.99397 13.3868 0.883997 10.6129 0.883997C7.83902 0.883997 5.48852 1.99285 3.5614 4.21055C1.63429 6.42823 0.670743 9.13476 0.670743 12.3301C0.670743 15.5255 1.63332 18.2332 3.55847 20.4532C5.48361 22.6731 7.83311 23.7831 10.607 23.7831Z" fill="black"/>
</svg>
