<svg xmlns="http://www.w3.org/2000/svg" viewBox="0 0 64 64"><g id="Layer_77" data-name="Layer 77"><path d="M32,52.75a18.44,18.44,0,0,1-5.76-36,.74.74,0,0,1,.94.48.75.75,0,0,1-.47.95,16.94,16.94,0,1,0,10.58,0,.75.75,0,0,1,.47-1.43,18.44,18.44,0,0,1-5.76,36Z" id="id_101"></path><path d="M32,26.37a.76.76,0,0,1-.75-.75V12a.75.75,0,0,1,1.5,0V25.62A.76.76,0,0,1,32,26.37Z" id="id_102"></path><path d="M32,60.75A28.75,28.75,0,1,1,60.75,32,28.79,28.79,0,0,1,32,60.75Zm0-56A27.25,27.25,0,1,0,59.25,32,27.28,27.28,0,0,0,32,4.75Z" id="id_103"></path></g></svg>