<svg width="133" height="40" viewBox="0 0 133 40" fill="none" xmlns="http://www.w3.org/2000/svg">
<path d="M29.82 12.64L24.44 27H22.8L17.44 12.64H19L23.64 25.28L28.32 12.64H29.82ZM34.3788 27.2C31.4188 27.2 29.4588 24.98 29.4588 21.64C29.4588 18.56 31.4988 16.26 34.2988 16.26C37.2988 16.26 39.2588 18.68 39.0188 22.06H30.8588C30.9788 24.56 32.2988 26.1 34.3588 26.1C36.1188 26.1 37.3388 25.12 37.6788 23.44H39.0588C38.5788 25.78 36.7988 27.2 34.3788 27.2ZM34.2788 17.34C32.3788 17.34 31.0388 18.8 30.8588 21.1H37.5588C37.4388 18.74 36.2188 17.34 34.2788 17.34ZM45.1172 31.08C42.4372 31.08 40.7572 29.68 40.6372 27.32H41.9772C42.0972 29.04 43.2172 29.96 45.0972 29.96C47.1772 29.96 48.2772 28.86 48.2772 26.78V24.58C47.6372 26.06 46.3572 26.92 44.7972 26.92C42.1372 26.92 40.3572 24.78 40.3572 21.58C40.3572 18.38 42.1172 16.26 44.7772 16.26C46.3572 16.26 47.6772 17.16 48.3572 18.7V16.46H49.6572V26.76C49.6572 29.48 47.9972 31.08 45.1172 31.08ZM41.7572 21.58C41.7572 24.16 42.9772 25.72 44.9972 25.72C46.9772 25.72 48.2972 24.12 48.2972 21.68C48.2972 19.1 46.9972 17.46 44.9972 17.46C42.9972 17.46 41.7572 19.02 41.7572 21.58ZM59.1797 27V25.08C58.5597 26.4 57.2797 27.2 55.6397 27.2C53.4597 27.2 52.0397 25.98 52.0397 24.08C52.0397 22.02 53.6797 20.94 56.8797 20.94C57.5197 20.94 57.9997 20.98 59.0397 21.06V20.18C59.0397 18.42 58.0997 17.38 56.4997 17.38C54.7797 17.38 53.6997 18.44 53.6797 20.16H52.3997C52.4597 17.82 54.0797 16.26 56.4797 16.26C58.9397 16.26 60.3797 17.7 60.3797 20.14V27H59.1797ZM53.3797 24.04C53.3797 25.32 54.3597 26.18 55.8397 26.18C57.7997 26.18 59.0397 24.9 59.0397 22.92V21.98C58.1397 21.9 57.5197 21.88 56.9397 21.88C54.5397 21.88 53.3797 22.58 53.3797 24.04ZM64.7247 20.86V27H63.3247V16.46H64.6247V18.44C65.3047 17.14 66.5847 16.26 68.1047 16.26C70.3047 16.26 71.7247 17.66 71.7247 20.16V27H70.3247V20.64C70.3247 18.62 69.4047 17.48 67.6847 17.48C66.0447 17.48 64.7247 18.9 64.7247 20.86ZM80.452 27H78.952V12.64H80.452V18.94H88.612V12.64H90.112V27H88.612V20.24H80.452V27ZM99.7266 27V25.08C99.1066 26.4 97.8266 27.2 96.1866 27.2C94.0066 27.2 92.5866 25.98 92.5866 24.08C92.5866 22.02 94.2266 20.94 97.4266 20.94C98.0666 20.94 98.5466 20.98 99.5866 21.06V20.18C99.5866 18.42 98.6466 17.38 97.0466 17.38C95.3266 17.38 94.2466 18.44 94.2266 20.16H92.9466C93.0066 17.82 94.6266 16.26 97.0266 16.26C99.4866 16.26 100.927 17.7 100.927 20.14V27H99.7266ZM93.9266 24.04C93.9266 25.32 94.9066 26.18 96.3866 26.18C98.3466 26.18 99.5866 24.9 99.5866 22.92V21.98C98.6866 21.9 98.0666 21.88 97.4866 21.88C95.0866 21.88 93.9266 22.58 93.9266 24.04ZM105.272 21.36V27H103.872V16.46H105.172V18.86C105.892 17.3 107.452 16.3 109.192 16.3V17.76C106.972 17.68 105.272 19.06 105.272 21.36ZM112.723 14.02C112.723 14.64 112.263 15.08 111.583 15.08C110.923 15.08 110.463 14.64 110.463 14.02C110.463 13.42 110.923 12.98 111.583 12.98C112.263 12.98 112.723 13.42 112.723 14.02ZM112.303 27H110.903V16.46H112.303V27ZM120.756 25.66V26.9C120.216 27.12 119.756 27.2 119.236 27.2C117.496 27.2 116.156 26.3 116.156 24.02V17.64H113.676V16.46H116.156V13.34H117.556V16.46H120.856V17.64H117.556V23.72C117.556 25.36 118.356 25.92 119.516 25.92C119.956 25.92 120.316 25.84 120.756 25.66ZM129.453 27V25.08C128.833 26.4 127.553 27.2 125.913 27.2C123.733 27.2 122.313 25.98 122.313 24.08C122.313 22.02 123.953 20.94 127.153 20.94C127.793 20.94 128.273 20.98 129.313 21.06V20.18C129.313 18.42 128.373 17.38 126.773 17.38C125.053 17.38 123.973 18.44 123.953 20.16H122.673C122.733 17.82 124.353 16.26 126.753 16.26C129.213 16.26 130.653 17.7 130.653 20.14V27H129.453ZM123.653 24.04C123.653 25.32 124.633 26.18 126.113 26.18C128.073 26.18 129.313 24.9 129.313 22.92V21.98C128.413 21.9 127.793 21.88 127.213 21.88C124.813 21.88 123.653 22.58 123.653 24.04Z" fill="black"/>
<path d="M52.945 31.5541C60.9621 31.5541 67.8962 28.8888 73.7685 23.42C77.0894 20.3273 82.985 14.211 81.8592 9.13722C81.339 6.79262 78.8986 5.2451 76.8191 4.30158C70.6607 1.50736 63.2104 1.06306 56.5261 1.0031C42.3252 0.875715 28.4857 4.67959 16.1887 11.491C9.9453 14.9493 2.54384 19.8714 1.15133 27.2308C-0.746423 37.2604 15.7046 38.6501 22.522 38.9196C39.8638 39.6052 56.0157 35.8233 72.3427 30.6894" stroke="#01DA5A" stroke-width="2" stroke-linecap="round"/>
</svg>
