<svg width="22" height="19" viewBox="0 0 22 19" fill="none" xmlns="http://www.w3.org/2000/svg">
<mask id="mask0_2676_281" style="mask-type:alpha" maskUnits="userSpaceOnUse" x="0" y="0" width="22" height="19">
<rect width="22" height="18.9635" fill="#D9D9D9"/>
</mask>
<g mask="url(#mask0_2676_281)">
<path d="M16.225 12.9189V10.509H13.4292V10.0349H16.225V7.62493H16.775V10.0349H19.5708V10.509H16.775V12.9189H16.225ZM10.0833 15.2103L9.57917 14.8153C8.09723 13.6432 6.87118 12.6424 5.90105 11.8127C4.93091 10.983 4.16702 10.2555 3.60938 9.62992C3.05174 9.00439 2.66216 8.44141 2.44063 7.94099C2.2191 7.44056 2.10834 6.94013 2.10834 6.43971C2.10834 5.5047 2.47882 4.71785 3.2198 4.07915C3.96077 3.44044 4.87362 3.12109 5.95834 3.12109C6.76806 3.12109 7.52431 3.30875 8.22709 3.68407C8.92987 4.05939 9.54862 4.6092 10.0833 5.3335C10.6181 4.6092 11.2368 4.05939 11.9396 3.68407C12.6424 3.30875 13.3986 3.12109 14.2083 3.12109C15.2625 3.12109 16.1524 3.42069 16.8781 4.01989C17.6038 4.61908 17.9972 5.36643 18.0583 6.26193C17.8444 6.19608 17.6076 6.1434 17.3479 6.1039C17.0882 6.06439 16.8056 6.04464 16.5 6.04464C15.1403 6.04464 13.983 6.45288 13.0281 7.26936C12.0733 8.08585 11.5958 9.0867 11.5958 10.2719C11.5958 10.7723 11.699 11.2596 11.9052 11.7337C12.1115 12.2078 12.4132 12.6424 12.8104 13.0374C12.4743 13.3008 12.1229 13.5807 11.7563 13.877C11.3896 14.1733 11 14.486 10.5875 14.8153L10.0833 15.2103Z" fill="black"/>
</g>
</svg>
