<svg width="36" height="36" viewBox="0 0 36 36" fill="none" xmlns="http://www.w3.org/2000/svg">
<path d="M17.976 36C15.4893 36 13.1524 35.5281 10.9653 34.5844C8.77826 33.6407 6.87581 32.3599 5.25797 30.742C3.64013 29.1242 2.35934 27.2217 1.41558 25.0347C0.471861 22.8476 0 20.5107 0 18.024C0 15.4606 0.488651 13.0814 1.46595 10.8865C2.44326 8.69159 3.75701 6.78505 5.40721 5.16689C7.05741 3.54873 8.96395 2.28304 11.1268 1.36983C13.2897 0.456609 15.5412 0 17.8812 0C18.283 0 18.6957 0.00801068 19.1192 0.024032C19.5426 0.0400534 19.9786 0.0801068 20.4272 0.144192C20.4272 1.55407 20.6195 2.81175 21.004 3.91722C21.3885 5.0227 21.9653 5.98398 22.7343 6.80107C23.5033 7.61816 24.4566 8.28304 25.5941 8.79573C26.7316 9.30841 28.0534 9.66088 29.5594 9.85314C29.9119 11.1989 30.5047 12.3204 31.3378 13.2176C32.1709 14.1148 33.0841 14.8678 34.0774 15.4766C34.0774 15.8611 34.2617 16.1816 34.6302 16.4379C34.9987 16.6943 35.4392 16.7904 35.9519 16.7263C36.016 19.3632 35.5809 21.843 34.6466 24.1657C33.7123 26.4885 32.4306 28.5289 30.8015 30.2869C29.1724 32.0449 27.2539 33.4366 25.0462 34.462C22.8385 35.4873 20.4817 36 17.976 36ZM15.0964 13.7463C15.7664 13.7463 16.3418 13.5046 16.8224 13.0211C17.3031 12.5377 17.5434 11.9609 17.5434 11.2908C17.5434 10.6208 17.3017 10.0454 16.8184 9.56475C16.3351 9.08411 15.7531 8.84379 15.0723 8.84379C14.4183 8.84379 13.8495 9.08544 13.366 9.56874C12.8826 10.0521 12.6409 10.6341 12.6409 11.3149C12.6409 11.9689 12.8826 12.5377 13.366 13.0211C13.8495 13.5046 14.4263 13.7463 15.0964 13.7463ZM11.2512 23.3591C11.9213 23.3591 12.4967 23.1174 12.9773 22.634C13.4579 22.1505 13.6983 21.5737 13.6983 20.9036C13.6983 20.2336 13.4566 19.6582 12.9733 19.1776C12.49 18.6969 11.9079 18.4566 11.2272 18.4566C10.5731 18.4566 10.0044 18.6983 9.52092 19.1816C9.03746 19.6649 8.79573 20.2469 8.79573 20.9277C8.79573 21.5817 9.03746 22.1505 9.52092 22.634C10.0044 23.1174 10.5811 23.3591 11.2512 23.3591ZM23.7677 25.2336C24.1682 25.2336 24.5047 25.0895 24.777 24.8011C25.0494 24.5127 25.1856 24.1682 25.1856 23.7677C25.1856 23.3672 25.0474 23.0307 24.771 22.7583C24.4947 22.486 24.1522 22.3498 23.7437 22.3498C23.3591 22.3498 23.0227 22.488 22.7343 22.7644C22.4459 23.0407 22.3017 23.3832 22.3017 23.7917C22.3017 24.1762 22.4459 24.5127 22.7343 24.8011C23.0227 25.0895 23.3672 25.2336 23.7677 25.2336Z" fill="#01DA5A"/>
</svg>
