<svg width="32" height="36" viewBox="0 0 32 36" fill="none" xmlns="http://www.w3.org/2000/svg">
<path d="M2.58621 12.3621C4.31035 11.3276 6.13793 10.5345 8.06897 9.98276C10 9.43104 11.9828 9.15517 14.0172 9.15517C15.0172 9.15517 16.0172 9.22414 17.0172 9.36207C18.0172 9.5 18.9828 9.68966 19.9138 9.93104C21.7759 10.4483 23.1983 10.7931 24.181 10.9655C25.1638 11.1379 26.2241 11.2241 27.3621 11.2241H29.4828L30.569 1.13793H1.24138L2.58621 12.3621ZM6.62069 36C5.86207 36 5.22414 35.7672 4.7069 35.3017C4.18966 34.8362 3.89655 34.2414 3.82759 33.5172L0 0H31.8621L28.0862 33.5172C28.0172 34.2414 27.7241 34.8362 27.2069 35.3017C26.6897 35.7672 26.0517 36 25.2931 36H6.62069Z" fill="#01DA5A"/>
</svg>
