<svg width="24" height="36" viewBox="0 0 24 36" fill="none" xmlns="http://www.w3.org/2000/svg">
<path d="M5.29412 36V18.6257C3.81818 18.5294 2.56684 17.9358 1.54011 16.8449C0.513369 15.754 0 14.4064 0 12.8021V0H1.05882V12.8021H5.29412V0H6.35294V12.8021H10.5401V0H11.5989V12.8021C11.5989 14.4064 11.0856 15.754 10.0588 16.8449C9.03209 17.9358 7.79679 18.5294 6.35294 18.6257V36H5.29412ZM22.8128 36V20.5989H18.4813V7.9893C18.4813 6.06417 18.9305 4.35562 19.8289 2.86364C20.7273 1.37166 22.0749 0.449198 23.8717 0.0962567V36H22.8128Z" fill="#01DA5A"/>
</svg>
