<svg width="42" height="42" viewBox="0 0 42 42" fill="none" xmlns="http://www.w3.org/2000/svg">
<circle cx="21" cy="21" r="21" fill="#01DA5A"/>
<path d="M27.9016 9.3352C25.4222 9.51372 23.6171 10.2576 22.1989 11.6808C21.103 12.7767 20.4534 13.9916 20.1161 15.5735C19.9823 16.2033 19.9277 17.805 20.012 18.5786C20.0765 19.1439 20.3294 20.4332 20.4286 20.7307L20.493 20.9192L20.8897 20.3787C22.9873 17.4926 25.6354 14.9288 28.6554 12.856C28.9975 12.618 29.3447 12.4097 29.424 12.3948C29.6273 12.3552 29.8852 12.5734 29.8852 12.7816C29.8852 13.0147 29.8108 13.099 29.2752 13.461C26.0024 15.6528 22.9873 18.6877 20.8451 21.9457C19.8434 23.473 19.4021 24.4499 18.9062 26.2202C18.8417 26.4434 18.7921 26.5227 18.6781 26.5822C18.2913 26.7856 18.1276 26.6169 17.9342 25.8235C17.2549 23.0267 15.4002 18.9158 13.501 16C12.7819 14.8941 11.5521 13.2626 11.3538 13.1535C11.3141 13.1288 11.2248 13.1337 11.1405 13.1684C10.9719 13.2378 10 14.2643 10 14.3734C10 14.4131 10.2232 14.7503 10.4959 15.1222C12.7175 18.1323 14.8002 22.3374 16.2036 26.6318C16.8334 28.5509 17.364 30.8271 17.5127 32.2106C17.5574 32.6271 17.6565 32.8304 17.8599 32.9247C18.0532 33.0189 18.1822 33.0238 18.3508 32.9445C18.5491 32.8552 18.6037 32.7313 18.8516 31.7841C19.8285 28.0154 21.103 24.5094 22.0947 22.868C22.4518 22.2829 22.5658 22.1936 22.9824 22.1936C23.4783 22.1936 24.5692 22.0597 25.2684 21.9159C26.4239 21.6779 27.5396 21.2465 28.2983 20.7456C28.7446 20.453 29.3992 19.8133 29.667 19.4117C30.1728 18.648 30.3959 18.0331 31.1943 15.1718C31.5067 14.0511 31.834 12.9602 31.9183 12.742C32.2605 11.8791 32.801 10.9716 33.4109 10.2476C33.5796 10.0493 33.7035 9.88068 33.6986 9.87076C33.6589 9.83605 32.1117 9.55339 31.5464 9.47901C30.3364 9.32528 28.8587 9.26577 27.9016 9.3352Z" fill="#000E06"/>
</svg>
