<svg width="66" height="37" viewBox="0 0 66 37" fill="none" xmlns="http://www.w3.org/2000/svg">
<rect x="0.5" y="18.6362" width="64.2907" height="17.6545" fill="#A7D4BC" stroke="black"/>
<path d="M15.5454 18.6475L32.3487 0.908194L49.3995 18.6475" stroke="black"/>
<ellipse cx="32.2567" cy="0.77727" rx="1.16591" ry="0.77727" fill="#262626"/>
<path d="M24.958 31H24.062V29.11L23.992 29.054V26.716C23.992 26.044 23.8333 25.5633 23.516 25.274C23.1987 24.9847 22.6573 24.84 21.892 24.84C21.1547 24.84 20.59 24.98 20.198 25.26C19.8153 25.5307 19.624 25.974 19.624 26.59V26.646H18.63V26.59C18.63 26.0953 18.7607 25.652 19.022 25.26C19.2833 24.8587 19.6613 24.5413 20.156 24.308C20.6507 24.0653 21.2527 23.944 21.962 23.944C22.662 23.944 23.2313 24.0653 23.67 24.308C24.118 24.5507 24.4447 24.8773 24.65 25.288C24.8553 25.6987 24.958 26.1607 24.958 26.674V31ZM20.758 31.14C20.0767 31.14 19.526 30.986 19.106 30.678C18.686 30.3607 18.476 29.9267 18.476 29.376C18.476 28.9933 18.5693 28.6853 18.756 28.452C18.952 28.2093 19.218 28.0227 19.554 27.892C19.89 27.7613 20.2727 27.668 20.702 27.612L24.132 27.234V27.892L21.01 28.242C20.4873 28.2887 20.1 28.3867 19.848 28.536C19.596 28.6853 19.47 28.942 19.47 29.306C19.47 29.6513 19.5913 29.9173 19.834 30.104C20.0767 30.2813 20.4593 30.37 20.982 30.37C21.5513 30.37 22.06 30.286 22.508 30.118C22.956 29.9407 23.3153 29.6747 23.586 29.32C23.8567 28.9653 23.992 28.5127 23.992 27.962L24.188 28.032V29.138H23.992C23.7867 29.7727 23.3993 30.2673 22.83 30.622C22.2607 30.9673 21.57 31.14 20.758 31.14ZM29.896 31.14C29.1586 31.14 28.5146 30.986 27.964 30.678C27.4133 30.37 26.9886 29.9453 26.69 29.404C26.3913 28.8627 26.242 28.242 26.242 27.542C26.242 26.842 26.3913 26.2213 26.69 25.68C26.9886 25.1387 27.4133 24.714 27.964 24.406C28.5146 24.098 29.1586 23.944 29.896 23.944C30.54 23.944 31.1186 24.0653 31.632 24.308C32.1546 24.5413 32.57 24.868 32.878 25.288C33.186 25.708 33.34 26.198 33.34 26.758V26.87H32.36V26.786C32.36 26.17 32.1406 25.694 31.702 25.358C31.2726 25.022 30.666 24.854 29.882 24.854C28.958 24.854 28.286 25.092 27.866 25.568C27.446 26.0347 27.236 26.6927 27.236 27.542C27.236 28.3913 27.446 29.054 27.866 29.53C28.286 29.9967 28.958 30.23 29.882 30.23C30.666 30.23 31.2726 30.0667 31.702 29.74C32.1406 29.404 32.36 28.9233 32.36 28.298V28.214H33.34V28.326C33.34 28.8767 33.186 29.3667 32.878 29.796C32.57 30.216 32.1546 30.5473 31.632 30.79C31.1186 31.0233 30.54 31.14 29.896 31.14ZM30.722 33.856H29.616V33.226H30.722C30.862 33.226 30.9786 33.198 31.072 33.142C31.1653 33.0953 31.212 32.9927 31.212 32.834C31.212 32.666 31.1653 32.554 31.072 32.498C30.9786 32.4513 30.862 32.428 30.722 32.428H29.742V30.958H30.372V31.798H30.722C31.0953 31.798 31.3846 31.8867 31.59 32.064C31.7953 32.2507 31.898 32.5027 31.898 32.82C31.898 33.1373 31.7953 33.3893 31.59 33.576C31.3846 33.7627 31.0953 33.856 30.722 33.856ZM35.61 31H34.616V24H35.61V31ZM44.0323 31H42.8703L40.5463 27.892H37.8163V26.982H40.5603L42.8703 24.084H44.0463L41.3723 27.388L44.0323 31ZM38.2363 31H37.2423V21.62H38.2363V31Z" fill="black"/>
</svg>
