<svg width="43" height="26" viewBox="0 0 43 26" fill="none" xmlns="http://www.w3.org/2000/svg">
<rect x="0.5" y="13.5" width="41.5915" height="11.169" fill="#01DA5A" stroke="black"/>
<path d="M10.1407 13.1646L21.1021 1.59258L32.225 13.1646" stroke="black"/>
<ellipse cx="21.0422" cy="1.50704" rx="0.760562" ry="0.507042" fill="black"/>
<path d="M17.2 22V21.232C16.952 21.76 16.44 22.08 15.784 22.08C14.912 22.08 14.344 21.592 14.344 20.832C14.344 20.008 15 19.576 16.28 19.576C16.536 19.576 16.728 19.592 17.144 19.624V19.272C17.144 18.568 16.768 18.152 16.128 18.152C15.44 18.152 15.008 18.576 15 19.264H14.488C14.512 18.328 15.16 17.704 16.12 17.704C17.104 17.704 17.68 18.28 17.68 19.256V22H17.2ZM14.88 20.816C14.88 21.328 15.272 21.672 15.864 21.672C16.648 21.672 17.144 21.16 17.144 20.368V19.992C16.784 19.96 16.536 19.952 16.304 19.952C15.344 19.952 14.88 20.232 14.88 20.816ZM21.226 22.944C21.226 23.328 20.874 23.584 20.41 23.584C19.938 23.584 19.586 23.344 19.522 22.904H19.914C19.962 23.152 20.146 23.272 20.402 23.272C20.642 23.272 20.794 23.12 20.794 22.928C20.794 22.576 20.458 22.456 20.09 22.496L20.226 22.08C19.226 21.968 18.546 21.104 18.546 19.888C18.546 18.608 19.33 17.704 20.434 17.704C21.418 17.704 22.122 18.36 22.29 19.416H21.722C21.594 18.648 21.114 18.192 20.434 18.192C19.65 18.192 19.114 18.88 19.114 19.888C19.114 20.912 19.65 21.6 20.434 21.6C21.122 21.6 21.594 21.152 21.722 20.368H22.29C22.146 21.4 21.482 22.032 20.554 22.088L20.482 22.296C20.914 22.32 21.226 22.584 21.226 22.944ZM23.7539 22H23.1939V17.784H23.7539V22ZM25.5274 22H24.9674V16.256H25.5274V19.744L27.5594 17.784H28.2234L26.0954 19.848L28.3994 22H27.6714L25.5274 19.976V22Z" fill="black"/>
</svg>
