<svg width="24" height="24" viewBox="0 0 24 24" fill="none" xmlns="http://www.w3.org/2000/svg">
<path d="M3.8942 0.0860348C2.16301 0.491949 0.966075 1.30892 0.400997 2.47529C0.0516768 3.19463 -0.00483102 3.49778 0.000306044 4.58708C0.0208543 8.20949 1.15101 11.9244 3.18015 15.0535C4.52093 17.1242 6.36 19.0202 8.44051 20.4743C11.6306 22.7094 15.5656 23.9734 19.4081 23.9991C20.1582 24.0042 20.3996 23.9888 20.6924 23.9118C22.3928 23.4647 23.487 22.1134 23.9339 19.9194C24.0469 19.3696 24.011 18.6811 23.8569 18.27C23.6308 17.6843 23.5024 17.5507 21.8739 16.261C19.9321 14.7196 19.7575 14.5911 19.3362 14.437C18.8842 14.2725 18.2472 14.2314 17.7694 14.3445C17.1838 14.4832 16.8704 14.6887 15.9766 15.5263L15.1598 16.2918L14.8927 16.225C12.9149 15.7266 10.0535 13.5069 8.63572 11.3695C8.1477 10.6347 7.77269 9.74067 7.6905 9.13436L7.65968 8.88259L8.45078 8.03993C9.2984 7.13561 9.51416 6.81704 9.64772 6.25184C9.79669 5.60957 9.72478 4.97244 9.43196 4.37641C9.36005 4.22227 8.67168 3.30253 7.90625 2.33655C6.43705 0.481672 6.32404 0.368631 5.72814 0.137415C5.31717 -0.0218697 4.46956 -0.0475578 3.8942 0.0860348ZM5.45587 1.22157C5.69731 1.32947 5.80519 1.45279 7.0124 2.97369C7.72646 3.87287 8.384 4.74122 8.4662 4.90564C8.59976 5.16255 8.62031 5.24476 8.61517 5.60957C8.61003 6.21588 8.51757 6.3803 7.56721 7.37711C6.50383 8.50237 6.56548 8.41502 6.57575 8.86718C6.64254 11.0817 8.97476 14.1801 12.021 16.1017C13.1769 16.8313 14.9749 17.5301 15.4372 17.4325C15.5451 17.4068 15.8841 17.1242 16.5263 16.5282C17.6307 15.4954 17.8259 15.3772 18.4064 15.3824C18.689 15.3824 18.8585 15.4132 19.0383 15.4954C19.1718 15.5519 20.0451 16.1994 20.975 16.929C22.8962 18.4345 22.8859 18.4242 22.9168 19.1024C22.9527 19.7961 22.6188 20.8802 22.1616 21.579C21.7352 22.2367 21.1702 22.6478 20.451 22.8327C20.1838 22.9047 19.9424 22.9149 19.0742 22.8893C17.9544 22.8584 17.1324 22.7711 16.0947 22.5656C9.11347 21.1885 3.48324 15.8962 1.68526 9.00591C1.32053 7.61346 1.15101 6.42654 1.10991 4.94675C1.08423 4.04757 1.0945 3.81635 1.16642 3.54403C1.44382 2.45473 2.20925 1.7508 3.58598 1.30378C4.38223 1.04687 4.9884 1.02118 5.45587 1.22157Z" fill="black"/>
<path d="M5.45587 1.22157C5.69731 1.32947 5.80519 1.45279 7.0124 2.97369C7.72646 3.87287 8.384 4.74122 8.4662 4.90564C8.59976 5.16255 8.62031 5.24476 8.61517 5.60957C8.61003 6.21588 8.51757 6.3803 7.56721 7.37711C6.50383 8.50237 6.56548 8.41502 6.57575 8.86718C6.64254 11.0817 8.97476 14.1801 12.021 16.1017C13.1769 16.8313 14.9749 17.5301 15.4372 17.4325C15.5451 17.4068 15.8841 17.1242 16.5263 16.5282C17.6307 15.4954 17.8259 15.3772 18.4064 15.3824C18.689 15.3824 18.8585 15.4132 19.0383 15.4954C19.1718 15.5519 20.0451 16.1994 20.975 16.929C22.8962 18.4345 22.8859 18.4242 22.9168 19.1024C22.9527 19.7961 22.6188 20.8802 22.1616 21.579C21.7352 22.2367 21.1702 22.6478 20.451 22.8327C20.1838 22.9047 19.9424 22.9149 19.0742 22.8893C17.9544 22.8584 17.1324 22.7711 16.0947 22.5656C9.11347 21.1885 3.48324 15.8962 1.68526 9.00591C1.32053 7.61346 1.15101 6.42654 1.10991 4.94675C1.08423 4.04757 1.0945 3.81635 1.16642 3.54403C1.44382 2.45473 2.20925 1.7508 3.58598 1.30378C4.38223 1.04687 4.9884 1.02118 5.45587 1.22157Z" fill="#01DA5A"/>
</svg>
