<svg width="39" height="38" viewBox="0 0 39 38" fill="none" xmlns="http://www.w3.org/2000/svg">
<path d="M6.32598 0.136219C3.58492 0.778919 1.68977 2.07246 0.795069 3.9192C0.241978 5.05816 0.152507 5.53815 0.160641 7.26287C0.193176 12.9984 1.98259 18.8803 5.1954 23.8348C7.31829 27.1134 10.2302 30.1153 13.5243 32.4177C18.5753 35.9566 24.8057 37.9579 30.8897 37.9986C32.0772 38.0067 32.4595 37.9823 32.9231 37.8603C35.6154 37.1525 37.3479 35.0129 38.0555 31.539C38.2345 30.6685 38.1775 29.5784 37.9335 28.9276C37.5756 28.0001 37.3723 27.7886 34.7939 25.7466C31.7194 23.306 31.4428 23.1026 30.7759 22.8585C30.0601 22.5982 29.0515 22.5331 28.2951 22.7121C27.3678 22.9317 26.8717 23.2572 25.4564 24.5832L24.1632 25.7954L23.7402 25.6897C20.6087 24.9005 16.0783 21.386 13.8334 18.0017C13.0607 16.8383 12.4669 15.4227 12.3368 14.4627L12.288 14.0641L13.5406 12.7299C14.8826 11.298 15.2242 10.7936 15.4357 9.89875C15.6716 8.88182 15.5577 7.87303 15.0941 6.92932C14.9802 6.68525 13.8903 5.22901 12.6784 3.69954C10.3522 0.762646 10.1732 0.583668 9.22971 0.217571C8.57901 -0.034626 7.23695 -0.0753021 6.32598 0.136219ZM8.79862 1.93415C9.1809 2.105 9.35171 2.30025 11.2631 4.70834C12.3937 6.13204 13.4348 7.50693 13.565 7.76727C13.7764 8.17404 13.809 8.30421 13.8008 8.88182C13.7927 9.8418 13.6463 10.1021 12.1416 11.6804C10.4579 13.4621 10.5555 13.3238 10.5718 14.0397C10.6775 17.5461 14.3702 22.4517 19.1935 25.4944C21.0236 26.6496 23.8704 27.7561 24.6024 27.6015C24.7732 27.5608 25.31 27.1134 26.3267 26.1696C28.0755 24.5344 28.3846 24.3473 29.3037 24.3554C29.751 24.3554 30.0194 24.4043 30.3041 24.5344C30.5156 24.6239 31.8983 25.649 33.3705 26.8042C36.4125 29.1879 36.3962 29.1716 36.445 30.2455C36.502 31.3438 35.9733 33.0604 35.2494 34.1668C34.5743 35.2081 33.6796 35.859 32.5409 36.1518C32.1179 36.2657 31.7356 36.282 30.361 36.2413C28.5879 36.1925 27.2865 36.0542 25.6435 35.7288C14.5898 33.5485 5.67528 25.169 2.82849 14.2594C2.251 12.0546 1.98259 10.1754 1.91752 7.83235C1.87685 6.40865 1.89312 6.04255 2.00699 5.61137C2.44621 3.88666 3.65813 2.7721 5.83796 2.06432C7.09868 1.65755 8.05846 1.61687 8.79862 1.93415Z" fill="#243E2E"/>
<path d="M8.79862 1.93415C9.1809 2.105 9.35171 2.30025 11.2631 4.70834C12.3937 6.13204 13.4348 7.50693 13.565 7.76727C13.7764 8.17404 13.809 8.30421 13.8008 8.88182C13.7927 9.8418 13.6463 10.1021 12.1416 11.6804C10.4579 13.4621 10.5555 13.3238 10.5718 14.0397C10.6775 17.5461 14.3702 22.4517 19.1935 25.4944C21.0236 26.6496 23.8704 27.7561 24.6024 27.6015C24.7732 27.5608 25.31 27.1134 26.3267 26.1696C28.0755 24.5344 28.3846 24.3473 29.3037 24.3554C29.751 24.3554 30.0194 24.4043 30.3041 24.5344C30.5156 24.6239 31.8983 25.649 33.3705 26.8042C36.4125 29.1879 36.3962 29.1716 36.445 30.2455C36.502 31.3438 35.9733 33.0604 35.2494 34.1668C34.5743 35.2081 33.6796 35.859 32.5409 36.1518C32.1179 36.2657 31.7356 36.282 30.361 36.2413C28.5879 36.1925 27.2865 36.0542 25.6435 35.7288C14.5898 33.5485 5.67528 25.169 2.82849 14.2594C2.251 12.0546 1.98259 10.1754 1.91752 7.83235C1.87685 6.40865 1.89312 6.04255 2.00699 5.61137C2.44621 3.88666 3.65813 2.7721 5.83796 2.06432C7.09868 1.65755 8.05846 1.61687 8.79862 1.93415Z" fill="#A7D4BC"/>
</svg>
