<svg width="31" height="33" viewBox="0 0 31 33" fill="none" xmlns="http://www.w3.org/2000/svg">
<path d="M9.03133 32.1668C8.35522 32.1668 7.79217 31.9342 7.34217 31.4689C6.89189 31.0036 6.66675 30.4272 6.66675 29.7397C6.66675 29.0522 6.89508 28.4793 7.35175 28.021C7.80842 27.5627 8.37453 27.3335 9.05008 27.3335C9.72564 27.3335 10.2959 27.5661 10.7609 28.0314C11.2259 28.4967 11.4584 29.0731 11.4584 29.7606C11.4584 30.4481 11.2258 31.021 10.7605 31.4793C10.2952 31.9377 9.71883 32.1668 9.03133 32.1668ZM24.8647 32.1668C24.1886 32.1668 23.6255 31.9342 23.1755 31.4689C22.7252 31.0036 22.5001 30.4272 22.5001 29.7397C22.5001 29.0522 22.7284 28.4793 23.1851 28.021C23.6417 27.5627 24.2079 27.3335 24.8834 27.3335C25.5592 27.3335 26.1295 27.5661 26.5942 28.0314C27.0592 28.4967 27.2917 29.0731 27.2917 29.7606C27.2917 30.4481 27.0591 31.021 26.5938 31.4793C26.1286 31.9377 25.5522 32.1668 24.8647 32.1668ZM5.70841 4.16683H30.9167L23.9167 16.8752H10.3334L7.41675 22.1668H27.3334V23.6252H5.00008L9.45841 15.4585L3.20841 2.29183H0.166748V0.833496H4.12508L5.70841 4.16683Z" fill="#6A6A6A"/>
</svg>
