<svg width="20" height="20" viewBox="0 0 20 20" fill="none" xmlns="http://www.w3.org/2000/svg">
<mask id="mask0_3515_663" style="mask-type:alpha" maskUnits="userSpaceOnUse" x="0" y="0" width="20" height="20">
<rect width="20" height="20" fill="#D9D9D9"/>
</mask>
<g mask="url(#mask0_3515_663)">
<path d="M9.99636 13.0276C10.5266 13.0276 11 12.8644 11.4167 12.538C11.8333 12.2116 12.1389 11.8054 12.3333 11.3193H7.66667C7.86112 11.8054 8.16546 12.2116 8.57969 12.538C8.99392 12.8644 9.46614 13.0276 9.99636 13.0276ZM8.33823 10.1943C8.57108 10.1943 8.76737 10.1128 8.92709 9.9498C9.08681 9.78681 9.16667 9.58889 9.16667 9.35605C9.16667 9.1232 9.08518 8.92691 8.92219 8.76719C8.75919 8.60747 8.56128 8.52761 8.32844 8.52761C8.0956 8.52761 7.89931 8.6091 7.73959 8.77209C7.57987 8.93509 7.50001 9.133 7.50001 9.36584C7.50001 9.59868 7.5815 9.79497 7.74448 9.95469C7.90748 10.1144 8.1054 10.1943 8.33823 10.1943ZM11.6716 10.1943C11.9044 10.1943 12.1007 10.1128 12.2604 9.9498C12.4201 9.78681 12.5 9.58889 12.5 9.35605C12.5 9.1232 12.4185 8.92691 12.2555 8.76719C12.0925 8.60747 11.8946 8.52761 11.6618 8.52761C11.4289 8.52761 11.2326 8.6091 11.0729 8.77209C10.9132 8.93509 10.8333 9.133 10.8333 9.36584C10.8333 9.59868 10.9148 9.79497 11.0778 9.95469C11.2408 10.1144 11.4387 10.1943 11.6716 10.1943ZM6.6849 5.81982L10.0208 1.354L13.3153 5.81982L18.5903 7.59707L15.2014 12.1387L15.3264 17.3679L9.99773 15.7575L4.69446 17.3679L4.81946 12.1284L1.4514 7.57623L6.6849 5.81982Z" fill="white"/>
</g>
</svg>
