<svg width="16" height="14" viewBox="0 0 16 14" fill="none" xmlns="http://www.w3.org/2000/svg">
<path id="hotel_class" d="M11.6757 8.93015L15.2623 5.79044L16 5.86765L12.2862 9.05882L13.38 14L12.7695 13.614L11.6757 8.93015ZM9.86963 3.31985L8.80127 0.720588L9.08108 0L10.4801 3.37132L9.86963 3.31985ZM3.51033 12.1728L6.94436 10.0625L10.3784 12.1985L9.48808 8.20956L12.5151 5.55882L8.52146 5.19853L6.94436 1.46691L5.36725 5.17279L1.37361 5.53309L4.40064 8.20956L3.51033 12.1728ZM2.64547 13.3566L3.79014 8.41544L0 5.09559L4.98569 4.65809L6.94436 0L8.90302 4.65809L13.8887 5.09559L10.0986 8.41544L11.2432 13.3566L6.94436 10.7316L2.64547 13.3566Z" fill="white"/>
</svg>
