<svg width="53" height="51" viewBox="0 0 53 51" fill="none" xmlns="http://www.w3.org/2000/svg">
<g filter="url(#filter0_d_1052_63)">
<mask id="path-1-inside-1_1052_63" fill="white">
<path d="M26.5 42.75L9.17948 23.3981L4 0L49 4.32743e-06L43.4997 23.3981L26.5 42.75Z"/>
</mask>
<path d="M26.5 42.75L9.17948 23.3981L4 0L49 4.32743e-06L43.4997 23.3981L26.5 42.75Z" fill="#DEB35B"/>
<path d="M26.5 42.75L25.7549 43.4169L26.507 44.2572L27.2513 43.41L26.5 42.75ZM4 0L4 -1L2.75443 -1L3.02364 0.216131L4 0ZM49 4.32743e-06L49.9735 0.228839L50.2623 -0.999996L49 -0.999996V4.32743e-06ZM9.17948 23.3981L8.20312 23.6143L8.25971 23.8699L8.43435 24.0651L9.17948 23.3981ZM43.4997 23.3981L44.251 24.0581L44.416 23.8703L44.4732 23.627L43.4997 23.3981ZM4 1L49 1V-0.999996L4 -1L4 1ZM27.2451 42.0831L9.92461 22.7312L8.43435 24.0651L25.7549 43.4169L27.2451 42.0831ZM10.1558 23.182L4.97636 -0.216131L3.02364 0.216131L8.20312 23.6143L10.1558 23.182ZM48.0265 -0.22883L42.5263 23.1693L44.4732 23.627L49.9735 0.228839L48.0265 -0.22883ZM42.7485 22.7382L25.7487 42.09L27.2513 43.41L44.251 24.0581L42.7485 22.7382Z" fill="#243E2E" mask="url(#path-1-inside-1_1052_63)"/>
</g>
<path d="M32.9016 4.72248C30.4222 4.90331 28.6171 5.65677 27.1989 7.09838C26.103 8.20847 25.4534 9.43911 25.1161 11.0415C24.9823 11.6794 24.9277 13.3018 25.012 14.0854C25.0765 14.658 25.3294 15.964 25.4286 16.2654L25.493 16.4563L25.8897 15.9088C27.9873 12.9854 30.6354 10.3885 33.6554 8.28884C33.9975 8.04773 34.3447 7.83677 34.424 7.8217C34.6273 7.78151 34.8852 8.00253 34.8852 8.21349C34.8852 8.44958 34.8108 8.53497 34.2752 8.90165C31.0024 11.1218 27.9873 14.1959 25.8451 17.4961C24.8434 19.0431 24.4021 20.0327 23.9062 21.8259C23.8417 22.0519 23.7921 22.1323 23.6781 22.1926C23.2913 22.3985 23.1276 22.2278 22.9342 21.4241C22.2549 18.5911 20.4002 14.427 18.501 11.4734C17.7819 10.3533 16.5521 8.70073 16.3538 8.59022C16.3141 8.56511 16.2248 8.57013 16.1405 8.60529C15.9719 8.67561 15 9.71538 15 9.82589C15 9.86607 15.2232 10.2076 15.4959 10.5844C17.7175 13.6333 19.8002 17.8929 21.2036 22.2428C21.8334 24.1867 22.364 26.4923 22.5127 27.8937C22.5574 28.3157 22.6565 28.5216 22.8598 28.617C23.0532 28.7125 23.1822 28.7175 23.3508 28.6371C23.5491 28.5467 23.6037 28.4212 23.8516 27.4618C24.8285 23.6442 26.103 20.093 27.0947 18.4303C27.4518 17.8376 27.5658 17.7472 27.9824 17.7472C28.4783 17.7472 29.5692 17.6116 30.2684 17.4659C31.4239 17.2248 32.5396 16.7878 33.2983 16.2805C33.7446 15.9841 34.3992 15.3362 34.667 14.9293C35.1728 14.1557 35.3959 13.5329 36.1943 10.6346C36.5067 9.49939 36.834 8.39432 36.9183 8.17331C37.2605 7.2993 37.801 6.38008 38.4109 5.64672C38.5795 5.4458 38.7035 5.27502 38.6986 5.26497C38.6589 5.22981 37.1117 4.9435 36.5464 4.86815C35.3364 4.71244 33.8587 4.65216 32.9016 4.72248Z" fill="#243E2E"/>
<defs>
<filter id="filter0_d_1052_63" x="0" y="0" width="53" height="50.75" filterUnits="userSpaceOnUse" color-interpolation-filters="sRGB">
<feFlood flood-opacity="0" result="BackgroundImageFix"/>
<feColorMatrix in="SourceAlpha" type="matrix" values="0 0 0 0 0 0 0 0 0 0 0 0 0 0 0 0 0 0 127 0" result="hardAlpha"/>
<feOffset dy="4"/>
<feGaussianBlur stdDeviation="2"/>
<feComposite in2="hardAlpha" operator="out"/>
<feColorMatrix type="matrix" values="0 0 0 0 0 0 0 0 0 0 0 0 0 0 0 0 0 0 0.25 0"/>
<feBlend mode="normal" in2="BackgroundImageFix" result="effect1_dropShadow_1052_63"/>
<feBlend mode="normal" in="SourceGraphic" in2="effect1_dropShadow_1052_63" result="shape"/>
</filter>
</defs>
</svg>
