<svg width="26" height="24" viewBox="0 0 26 24" fill="none" xmlns="http://www.w3.org/2000/svg">
<mask id="path-1-inside-1_3510_432" fill="white">
<path d="M12.6316 24L2.90778 13.1358L1.90741e-06 0L25.2632 2.42943e-06L22.1753 13.1358L12.6316 24Z"/>
</mask>
<path d="M12.6316 24L2.90778 13.1358L1.90741e-06 0L25.2632 2.42943e-06L22.1753 13.1358L12.6316 24Z" fill="#01DA5A"/>
<path d="M12.6316 24L11.8864 24.6669L12.6386 25.5072L13.3829 24.66L12.6316 24ZM1.90741e-06 0L2.00357e-06 -1L-1.24557 -1L-0.976363 0.216131L1.90741e-06 0ZM25.2632 2.42943e-06L26.2366 0.228837L26.5255 -0.999997L25.2632 -0.999998L25.2632 2.42943e-06ZM2.90778 13.1358L1.93142 13.3519L1.98801 13.6076L2.16265 13.8027L2.90778 13.1358ZM22.1753 13.1358L22.9266 13.7958L23.0916 13.608L23.1488 13.3646L22.1753 13.1358ZM1.81124e-06 1L25.2632 1L25.2632 -0.999998L2.00357e-06 -1L1.81124e-06 1ZM13.3767 23.3331L3.65291 12.4689L2.16265 13.8027L11.8864 24.6669L13.3767 23.3331ZM3.88415 12.9197L0.976366 -0.216131L-0.976363 0.216131L1.93142 13.3519L3.88415 12.9197ZM24.2897 -0.228832L21.2018 12.907L23.1488 13.3646L26.2366 0.228837L24.2897 -0.228832ZM21.424 12.4758L11.8803 23.34L13.3829 24.66L22.9266 13.7958L21.424 12.4758Z" fill="black" mask="url(#path-1-inside-1_3510_432)"/>
<path d="M16.7475 4.01549C15.4251 4.1107 14.4624 4.50741 13.706 5.26646C13.1215 5.85094 12.7751 6.49891 12.5952 7.34258C12.5238 7.67846 12.4947 8.53271 12.5397 8.94529C12.5741 9.2468 12.709 9.93443 12.7618 10.0931L12.7962 10.1936L13.0078 9.90534C14.1265 8.3661 15.5388 6.99876 17.1495 5.89326C17.332 5.76631 17.5171 5.65523 17.5594 5.6473C17.6678 5.62614 17.8054 5.74251 17.8054 5.85359C17.8054 5.97789 17.7657 6.02285 17.4801 6.21592C15.7345 7.3849 14.1265 9.00348 12.984 10.7411C12.4498 11.5557 12.2144 12.0767 11.9499 13.0208C11.9155 13.1399 11.8891 13.1822 11.8283 13.2139C11.622 13.3223 11.5347 13.2324 11.4315 12.8093C11.0692 11.3176 10.0801 9.12514 9.06714 7.57003C8.68365 6.98025 8.02776 6.11013 7.92197 6.05194C7.90081 6.03872 7.8532 6.04137 7.80824 6.05988C7.71832 6.09691 7.19995 6.64437 7.19995 6.70255C7.19995 6.72371 7.31896 6.90355 7.46443 7.10191C8.64927 8.70727 9.76006 10.95 10.5085 13.2404C10.8444 14.2639 11.1274 15.4778 11.2067 16.2157C11.2305 16.4379 11.2834 16.5463 11.3919 16.5965C11.495 16.6468 11.5638 16.6494 11.6537 16.6071C11.7595 16.5595 11.7886 16.4934 11.9208 15.9882C12.4418 13.9782 13.1215 12.1084 13.6505 11.233C13.8409 10.9209 13.9017 10.8733 14.1239 10.8733C14.3884 10.8733 14.9702 10.8019 15.3431 10.7252C15.9593 10.5983 16.5544 10.3682 16.9591 10.101C17.1971 9.94501 17.5462 9.60384 17.689 9.38961C17.9588 8.98232 18.0778 8.65437 18.5036 7.12836C18.6702 6.53064 18.8448 5.9488 18.8897 5.83243C19.0722 5.37225 19.3605 4.88826 19.6858 4.50212C19.7757 4.39633 19.8418 4.30641 19.8392 4.30112C19.818 4.28261 18.9929 4.13186 18.6914 4.09219C18.046 4.0102 17.2579 3.97847 16.7475 4.01549Z" fill="black"/>
</svg>
