<svg width="30" height="30" viewBox="0 0 30 30" fill="none" xmlns="http://www.w3.org/2000/svg">
<g clip-path="url(#clip0_755_433)">
<path d="M13.8867 0.0407939C11.1445 0.298606 8.83594 1.09548 6.73828 2.49587C4.48828 3.99587 2.74219 5.98806 1.54688 8.40798C0.808594 9.9197 0.357422 11.4021 0.105469 13.1541C0.00585938 13.8455 0.00585938 16.1541 0.105469 16.8455C0.351562 18.574 0.808594 20.0857 1.52344 21.533C2.32617 23.1736 3.11719 24.2752 4.41797 25.5818C5.71289 26.8709 6.83203 27.6736 8.4082 28.447C9.50977 28.9861 10.2188 29.2498 11.3379 29.531C14.2676 30.2693 17.209 30.1287 20.0684 29.115C20.9414 28.8045 22.4531 28.0486 23.2324 27.5271C24.9844 26.3611 26.5898 24.7146 27.7383 22.9099C28.1602 22.2478 28.8398 20.8416 29.1152 20.0623C30.4922 16.1834 30.252 12.0232 28.4414 8.38454C27.7148 6.9197 26.9004 5.7654 25.7578 4.58767C24.4922 3.27517 23.25 2.37283 21.5918 1.55251C19.8574 0.697044 18.2402 0.234153 16.3184 0.058372C15.7207 0.00563765 14.3672 -0.0060811 13.8867 0.0407939ZM17.0098 5.20876C18.2812 5.48415 19.4473 5.9822 20.5664 6.72048C21.5039 7.34157 22.6582 8.49587 23.2793 9.43337C24.0176 10.5467 24.5156 11.7244 24.7969 13.031C24.9082 13.5408 24.9258 13.8045 24.9316 14.9705C24.9316 16.1658 24.9141 16.3885 24.7969 16.9568C24.3633 18.9842 23.4961 20.5779 22.0371 22.0369C20.8594 23.2088 19.623 23.9881 18.1113 24.4861C16.9922 24.8611 16.5176 24.9256 15.0293 24.9314C13.8281 24.9314 13.6113 24.9138 13.0371 24.7908C11.0215 24.3572 9.42188 23.49 7.96289 22.0369C6.79102 20.865 6.00586 19.6111 5.51367 18.117C5.13867 16.9861 5.07422 16.5174 5.07422 14.9998C5.07422 13.7927 5.08594 13.5467 5.20312 13.0252C5.49023 11.7127 5.97656 10.5584 6.7207 9.43337C7.3418 8.49587 8.49609 7.34157 9.43359 6.72048C10.5645 5.97634 11.7715 5.46658 13.0078 5.22048C13.9102 5.0447 13.875 5.05056 15.2051 5.06814C16.1895 5.07986 16.5527 5.10915 17.0098 5.20876Z" fill="#243E2E"/>
<path d="M14.6016 6.68555C13.957 7.00781 13.2656 8.16211 12.8086 9.67383C12.6621 10.1602 12.4277 11.1445 12.4219 11.291C12.4219 11.3496 12.9785 11.3672 15 11.3672C17.0215 11.3672 17.5781 11.3496 17.5781 11.291C17.5781 11.1035 17.2734 9.9082 17.0801 9.33984C16.5469 7.74609 15.7676 6.66797 15.082 6.58594C14.918 6.5625 14.7832 6.5918 14.6016 6.68555Z" fill="#243E2E"/>
<path d="M11.6602 7.25391C10.3594 7.82813 9.23438 8.69531 8.39062 9.77344C7.98047 10.3008 7.44141 11.1621 7.44141 11.291C7.44141 11.3496 7.75781 11.3672 9.13477 11.3672H10.8223L10.9277 10.8223C11.1621 9.60352 11.6484 8.10938 12.0703 7.3418C12.1582 7.17188 12.2168 7.03125 12.1992 7.03711C12.1758 7.03711 11.9355 7.13672 11.6602 7.25391Z" fill="#243E2E"/>
<path d="M17.9238 7.33594C18.334 8.06836 18.7969 9.45117 19.0488 10.7227L19.1778 11.3672H20.8653C22.1836 11.3672 22.5586 11.3496 22.5586 11.291C22.5586 11.168 22.002 10.2773 21.6035 9.76758C20.7422 8.66602 19.5293 7.74609 18.2227 7.20703C17.9883 7.10742 17.7891 7.03125 17.7774 7.03125C17.7598 7.03125 17.8301 7.17188 17.9238 7.33594Z" fill="#243E2E"/>
<path d="M6.83789 12.9316C6.7207 13.1367 6.5625 14.3613 6.5625 15.0293C6.5625 15.5039 6.69141 16.5762 6.78516 16.9043L6.83203 17.0801L8.70703 17.0977L10.5762 17.1094V15V12.8906H8.71875C7.69922 12.8906 6.84961 12.9082 6.83789 12.9316Z" fill="#243E2E"/>
<path d="M12.1523 13.3418C12.0938 13.9336 12.0938 16.0664 12.1523 16.6523L12.1992 17.1094H15H17.8008L17.8477 16.6523C17.9062 16.0664 17.9062 13.9336 17.8477 13.3418L17.8008 12.8906H15H12.1992L12.1523 13.3418Z" fill="#243E2E"/>
<path d="M19.4238 15V17.1094L21.293 17.0977L23.168 17.0801L23.2148 16.9043C23.3086 16.5703 23.4375 15.4922 23.4375 15C23.4375 14.5078 23.3086 13.4297 23.2148 13.0957L23.168 12.9199L21.293 12.9023L19.4238 12.8906V15Z" fill="#243E2E"/>
<path d="M7.44141 18.7031C7.44141 18.832 7.99805 19.7168 8.39063 20.2266C9.24023 21.3164 10.377 22.1836 11.6777 22.7461C11.959 22.8691 12.1992 22.9688 12.2109 22.9688C12.2227 22.9688 12.1582 22.8281 12.0703 22.6582C11.6484 21.8848 11.2031 20.5312 10.9512 19.2773L10.8223 18.6328H9.13477C7.81641 18.6328 7.44141 18.6504 7.44141 18.7031Z" fill="#243E2E"/>
<path d="M12.4219 18.7031C12.4219 18.7441 12.4863 19.0605 12.5625 19.4004C12.873 20.7539 13.4121 22.0605 13.9395 22.7168C14.6895 23.6484 15.3105 23.6484 16.0605 22.7168C16.5879 22.0605 17.127 20.7539 17.4375 19.4004C17.5137 19.0605 17.5781 18.7441 17.5781 18.7031C17.5781 18.6504 17.0215 18.6328 15 18.6328C12.9785 18.6328 12.4219 18.6504 12.4219 18.7031Z" fill="#243E2E"/>
<path d="M19.0488 19.2773C18.7968 20.5488 18.3339 21.9316 17.9238 22.6582C17.83 22.8281 17.7656 22.9688 17.7832 22.9688C17.7949 22.9688 18.041 22.8691 18.3222 22.7461C19.7168 22.1484 20.8711 21.2227 21.7968 19.9746C22.1367 19.5117 22.5586 18.8086 22.5586 18.6973C22.5586 18.6504 22.0488 18.6328 20.8652 18.6328H19.1777L19.0488 19.2773Z" fill="#243E2E"/>
</g>
<defs>
<clipPath id="clip0_755_433">
<rect width="30" height="30" fill="white"/>
</clipPath>
</defs>
</svg>
