<svg width="33" height="32" viewBox="0 0 33 32" fill="none" xmlns="http://www.w3.org/2000/svg">
<g clip-path="url(#clip0_494_437)">
<path d="M15.0124 0.043741C12.0874 0.318741 9.62485 1.16874 7.38735 2.66249C4.98735 4.26249 3.12485 6.38749 1.84985 8.96874C1.06235 10.5812 0.581104 12.1625 0.312354 14.0312C0.206104 14.7687 0.206104 17.2312 0.312354 17.9687C0.574854 19.8125 1.06235 21.425 1.82485 22.9687C2.6811 24.7187 3.52485 25.8937 4.91235 27.2875C6.2936 28.6625 7.48735 29.5187 9.1686 30.3437C10.3436 30.9187 11.0999 31.2 12.2936 31.5C15.4186 32.2875 18.5561 32.1375 21.6061 31.0562C22.5374 30.725 24.1499 29.9187 24.9811 29.3625C26.8499 28.1187 28.5624 26.3625 29.7874 24.4375C30.2374 23.7312 30.9624 22.2312 31.2561 21.4C32.7249 17.2625 32.4686 12.825 30.5374 8.94374C29.7624 7.38124 28.8936 6.14999 27.6749 4.89374C26.3249 3.49374 24.9999 2.53124 23.2311 1.65624C21.3811 0.743741 19.6561 0.249991 17.6061 0.062491C16.9686 0.00624104 15.5249 -0.00625896 15.0124 0.043741ZM18.3436 5.55624C19.6999 5.84999 20.9436 6.38124 22.1374 7.16874C23.1374 7.83124 24.3686 9.06249 25.0311 10.0625C25.8186 11.25 26.3499 12.5062 26.6499 13.9C26.7686 14.4437 26.7874 14.725 26.7936 15.9687C26.7936 17.2437 26.7749 17.4812 26.6499 18.0875C26.1874 20.25 25.2624 21.95 23.7061 23.5062C22.4499 24.7562 21.1311 25.5875 19.5186 26.1187C18.3249 26.5187 17.8186 26.5875 16.2311 26.5937C14.9499 26.5937 14.7186 26.575 14.1061 26.4437C11.9561 25.9812 10.2499 25.0562 8.6936 23.5062C7.4436 22.2562 6.6061 20.9187 6.0811 19.325C5.6811 18.1187 5.61235 17.6187 5.61235 16C5.61235 14.7125 5.62485 14.45 5.74985 13.8937C6.0561 12.4937 6.57485 11.2625 7.3686 10.0625C8.0311 9.06249 9.26235 7.83124 10.2624 7.16874C11.4686 6.37499 12.7561 5.83124 14.0749 5.56874C15.0374 5.38124 14.9999 5.38749 16.4186 5.40624C17.4686 5.41874 17.8561 5.44999 18.3436 5.55624Z" fill="black"/>
<path d="M15.775 7.13125C15.0875 7.475 14.35 8.70625 13.8625 10.3187C13.7062 10.8375 13.4562 11.8875 13.45 12.0437C13.45 12.1062 14.0437 12.125 16.2 12.125C18.3562 12.125 18.95 12.1062 18.95 12.0437C18.95 11.8437 18.625 10.5687 18.4187 9.9625C17.85 8.2625 17.0187 7.1125 16.2875 7.025C16.1125 7 15.9687 7.03125 15.775 7.13125Z" fill="black"/>
<path d="M12.6375 7.7375C11.25 8.35 10.05 9.275 9.14995 10.425C8.71245 10.9875 8.13745 11.9063 8.13745 12.0438C8.13745 12.1063 8.47495 12.125 9.9437 12.125H11.7437L11.8562 11.5438C12.1062 10.2438 12.625 8.65 13.075 7.83125C13.1687 7.65 13.2312 7.5 13.2125 7.50625C13.1875 7.50625 12.9312 7.6125 12.6375 7.7375Z" fill="black"/>
<path d="M19.3186 7.825C19.7561 8.60625 20.2498 10.0812 20.5186 11.4375L20.6561 12.125H22.4561C23.8623 12.125 24.2623 12.1062 24.2623 12.0437C24.2623 11.9125 23.6686 10.9625 23.2436 10.4187C22.3248 9.24375 21.0311 8.2625 19.6373 7.6875C19.3873 7.58125 19.1748 7.5 19.1623 7.5C19.1436 7.5 19.2186 7.65 19.3186 7.825Z" fill="black"/>
<path d="M7.4937 13.7937C7.3687 14.0125 7.19995 15.3187 7.19995 16.0312C7.19995 16.5375 7.33745 17.6812 7.43745 18.0312L7.48745 18.2187L9.48745 18.2375L11.4812 18.25V16V13.75H9.49995C8.41245 13.75 7.5062 13.7687 7.4937 13.7937Z" fill="black"/>
<path d="M13.1624 14.2312C13.0999 14.8625 13.0999 17.1375 13.1624 17.7625L13.2124 18.25H16.1999H19.1874L19.2374 17.7625C19.2999 17.1375 19.2999 14.8625 19.2374 14.2312L19.1874 13.75H16.1999H13.2124L13.1624 14.2312Z" fill="black"/>
<path d="M20.9187 16V18.25L22.9125 18.2375L24.9125 18.2187L24.9625 18.0312C25.0625 17.675 25.2 16.525 25.2 16C25.2 15.475 25.0625 14.325 24.9625 13.9687L24.9125 13.7812L22.9125 13.7625L20.9187 13.75V16Z" fill="black"/>
<path d="M8.13745 19.95C8.13745 20.0875 8.7312 21.0312 9.14995 21.575C10.0562 22.7375 11.2687 23.6625 12.6562 24.2625C12.9562 24.3937 13.2125 24.5 13.225 24.5C13.2375 24.5 13.1687 24.35 13.075 24.1687C12.625 23.3437 12.15 21.9 11.8812 20.5625L11.7437 19.875H9.9437C8.53745 19.875 8.13745 19.8937 8.13745 19.95Z" fill="black"/>
<path d="M13.45 19.95C13.45 19.9937 13.5187 20.3312 13.6 20.6937C13.9312 22.1375 14.5062 23.5312 15.0687 24.2312C15.8687 25.225 16.5312 25.225 17.3312 24.2312C17.8937 23.5312 18.4687 22.1375 18.8 20.6937C18.8812 20.3312 18.95 19.9937 18.95 19.95C18.95 19.8937 18.3562 19.875 16.2 19.875C14.0437 19.875 13.45 19.8937 13.45 19.95Z" fill="black"/>
<path d="M20.5186 20.5625C20.2499 21.9187 19.7561 23.3937 19.3186 24.1687C19.2186 24.35 19.1499 24.5 19.1686 24.5C19.1811 24.5 19.4436 24.3937 19.7436 24.2625C21.2311 23.625 22.4624 22.6375 23.4499 21.3062C23.8124 20.8125 24.2624 20.0625 24.2624 19.9437C24.2624 19.8937 23.7186 19.875 22.4561 19.875H20.6561L20.5186 20.5625Z" fill="black"/>
</g>
<defs>
<clipPath id="clip0_494_437">
<rect width="32" height="32" fill="white" transform="translate(0.199951)"/>
</clipPath>
</defs>
</svg>
